<svg width="32" height="32" viewBox="0 0 32 32" fill="none" xmlns="http://www.w3.org/2000/svg">
<path d="M21.3341 12V8C21.3341 5.05448 18.9463 2.66666 16.0008 2.66666C13.0553 2.66666 10.6675 5.05448 10.6675 8V12M4.79016 13.8026L3.99016 22.3359C3.76269 24.7622 3.64896 25.9754 4.05155 26.9124C4.40522 27.7355 5.02498 28.4161 5.81151 28.845C6.70685 29.3333 7.92531 29.3333 10.3622 29.3333H21.6394C24.0763 29.3333 25.2948 29.3333 26.1901 28.845C26.9767 28.4161 27.5964 27.7355 27.9501 26.9124C28.3527 25.9754 28.2389 24.7622 28.0115 22.3359L27.2115 13.8026C27.0194 11.7538 26.9234 10.7294 26.4626 9.95488C26.0568 9.27278 25.4573 8.72681 24.7403 8.38646C23.9261 8 22.8972 8 20.8394 8L11.1622 8C9.1044 8 8.0755 8 7.26138 8.38645C6.54437 8.72681 5.94483 9.27278 5.53903 9.95488C5.07827 10.7294 4.98223 11.7538 4.79016 13.8026Z" stroke="#5AB179" stroke-width="2" stroke-linecap="round" stroke-linejoin="round"/>
</svg>
