<svg width="518" height="232" viewBox="0 0 518 232" fill="none" xmlns="http://www.w3.org/2000/svg">
<g clip-path="url(#clip0_13215_13237)">
<path d="M114.592 5.40298C111.653 4.76625 108.834 5.07291 106.305 6.03601L109.22 -7.41899L102.983 -8.77066L97.6093 16.0257C95.9784 23.5523 100.95 30.9982 108.631 32.6627C116.312 34.3271 124.011 29.6808 125.665 22.0511C127.318 14.4215 122.428 7.10095 114.592 5.40298ZM82.2309 -1.17755C75.1778 -2.00427 68.2448 2.59228 66.7367 9.55176C65.1505 16.8721 70.2539 24.4547 77.7805 26.0856C85.307 27.7166 93.0803 22.9783 94.6778 15.6064C95.3592 12.4617 94.8394 9.3806 93.4235 6.699L83.2786 -12.9864L75.2365 -14.729L82.2309 -1.17755ZM30.8825 3.4016L28.2881 -12.2728L23.9062 -13.2224L15.1076 -0.0166779L12.5132 -15.6911L5.7084 -17.1657L10.191 10.468L14.5729 11.4175L23.8887 -2.43167L26.636 14.0315L31.0179 14.981L46.4858 -8.32954L39.7325 -9.79292L30.8825 3.4016ZM145.512 12.157C137.727 10.4702 130.164 14.9843 128.545 22.4593C126.936 29.8827 131.033 37.6251 139.23 39.4013C144.128 40.4625 148.6 39.0028 152.284 35.6993L148.276 30.7828C146.348 32.9557 143.303 33.8071 140.622 33.2262C137.117 32.4666 134.188 29.2952 134.701 25.6823L155.064 30.0948L155.466 28.2389C157.112 20.3919 152.987 13.7768 145.512 12.157ZM224.901 29.3601C217.117 27.6733 209.606 32.1986 207.919 39.9829C206.333 47.3032 210.486 54.7878 218.631 56.5528C223.528 57.614 228.001 56.1544 231.685 52.8508L228.177 48.3666C226.19 50.3109 223.168 51.0592 219.868 50.3443C216.621 49.6405 213.589 46.4468 214.102 42.8339L234.361 47.224L234.819 45.1104C236.45 37.5838 232.376 30.9799 224.901 29.3601ZM244.846 42.4256C245.193 40.8275 247.677 40.0706 250.564 40.6962C253.451 41.3217 256.346 43.4062 257.916 46.1214L262.652 42.4518C259.713 38.5768 256.451 36.1967 251.914 35.2137C246.244 33.9849 239.871 35.2486 238.609 41.0739C237.056 48.2396 243.285 50.1292 248.351 51.6587C251.193 52.4904 253.726 53.2552 253.324 55.111C252.888 57.1216 249.749 57.4128 247.223 56.8654C243.923 56.1504 241.103 53.974 239.536 50.99L234.61 54.2944C236.98 58.8018 241.262 61.4568 245.799 62.4398C251.469 63.6686 258.277 62.3912 259.584 56.3596C261.058 49.5548 254.811 47.4994 250.014 45.9742C246.948 44.932 244.478 44.1268 244.846 42.4256ZM166.278 23.6734L167.529 17.8996L161.291 16.5479L155.784 41.9629L162.022 43.3146L164.357 32.5403C166.477 26.739 171.9 25.3773 177.571 26.6061L178.922 20.3684L178.304 20.2343C173.509 19.1954 169.635 20.137 166.278 23.6734ZM186.022 27.9518L187.274 22.178L181.036 20.8264L175.529 46.2414L181.766 47.593L184.101 36.8187C186.389 30.2442 192.727 29.8903 197.315 30.8846L198.667 24.6468L197.996 24.5016C193.254 23.4739 189.391 24.3639 186.022 27.9518ZM54.6398 20.0457L60.8776 21.3974L68.9988 -16.0807L62.761 -17.4324L54.6398 20.0457ZM79.1098 19.951C74.831 19.0238 72.0516 14.9133 72.9564 10.7376C73.8613 6.56192 78.0525 3.90795 82.3313 4.83513C86.5586 5.75114 89.4411 9.88396 88.5251 14.1112C87.6091 18.3384 83.4402 20.8893 79.1098 19.951ZM109.989 26.6423C105.762 25.7263 102.92 21.6562 103.847 17.3774C104.774 13.0986 108.829 10.5769 113.262 11.5376C117.696 12.4983 120.372 16.5865 119.467 20.7622C118.562 24.9378 114.268 27.5695 109.989 26.6423ZM43.8655 17.711L50.1032 19.0627L55.6105 -6.3523L49.3727 -7.70397L43.8655 17.711ZM195.788 50.6315L202.026 51.9832L207.533 26.5682L201.296 25.2165L195.788 50.6315ZM55.0953 -19.4173C52.5692 -19.9647 50.0088 -18.3606 49.4502 -15.783C48.8805 -13.1539 50.7063 -10.8692 53.1292 -10.3442C55.8099 -9.76331 58.3523 -11.5332 58.855 -13.853C59.3689 -16.2244 57.6729 -18.8588 55.0953 -19.4173ZM207.07 13.5143C204.544 12.967 201.932 14.5599 201.373 17.1375C200.815 19.715 202.475 22.0177 205.207 22.6098C207.939 23.2018 210.186 21.7997 210.733 19.2737C211.281 16.7476 209.647 14.0729 207.07 13.5143ZM215.918 37.9382C217.496 35.6356 220.026 34.6725 223.274 35.3762C226.521 36.08 228.197 38.0622 228.497 40.6639L215.918 37.9382ZM136.477 20.7239C138.055 18.4213 140.585 17.4582 143.781 18.1508C147.029 18.8545 148.807 20.8591 149.107 23.4608C149.159 23.4719 136.477 20.7239 136.477 20.7239Z" fill="#5AB179"/>
</g>
<g clip-path="url(#clip1_13215_13237)">
<path fill-rule="evenodd" clip-rule="evenodd" d="M336.549 41.6823C332.664 40.4018 328.477 40.3562 324.565 41.5518C320.652 42.7473 317.206 45.1252 314.7 48.3588C312.194 51.5923 310.751 55.5227 310.569 59.6097C310.387 63.6967 311.476 67.7397 313.685 71.1829C315.894 74.6262 319.116 77.3006 322.907 78.8387C326.697 80.3768 330.872 80.703 334.855 79.7725C338.839 78.842 342.437 76.7004 345.154 73.6422C347.872 70.5839 349.575 66.7591 350.03 62.6935C350.541 58.1753 349.479 53.6191 347.024 49.7921C344.568 45.9651 340.869 43.1011 336.549 41.6823ZM329.532 71.0345C327.332 70.8579 325.242 69.9963 323.556 68.5706C321.87 67.1448 320.674 65.2267 320.134 63.0858C319.595 60.945 319.74 58.6889 320.549 56.6347C321.358 54.5805 322.791 52.8316 324.645 51.6335C326.5 50.4355 328.683 49.8487 330.888 49.9556C333.093 50.0625 335.21 50.8576 336.94 52.2294C338.67 53.6011 339.926 55.4804 340.533 57.6032C341.139 59.726 341.066 61.9855 340.322 64.0642C339.54 66.2508 338.06 68.1188 336.109 69.3788C334.159 70.6389 331.847 71.2208 329.532 71.0345ZM363.96 48.4235C363.288 48.2797 362.593 48.2873 361.925 48.446C361.257 48.6047 360.632 48.9103 360.097 49.3407C359.562 49.771 359.129 50.3153 358.831 50.9339C358.532 51.5525 358.376 52.2298 358.372 52.9166C358.335 55.1363 360.008 57.0207 362.173 57.4899L374.736 60.2123L349.578 81.8496C349.392 82.0093 349.254 82.2177 349.18 82.4513C349.106 82.6849 349.098 82.9346 349.158 83.1723C349.217 83.4101 349.342 83.6265 349.518 83.7973C349.694 83.9682 349.914 84.0866 350.153 84.1395L380.822 90.7852C382.985 91.254 385.289 90.2315 386.175 88.1955C386.456 87.5689 386.593 86.8876 386.578 86.201C386.563 85.5145 386.394 84.8401 386.085 84.2267C385.777 83.6134 385.335 83.0766 384.792 82.6555C384.25 82.2343 383.621 81.9393 382.95 81.792L367.642 78.4749L392.781 56.8544C392.969 56.6932 393.108 56.4828 393.183 56.2469C393.258 56.011 393.266 55.7588 393.205 55.5188C393.145 55.2787 393.019 55.0603 392.841 54.8879C392.664 54.7155 392.442 54.596 392.2 54.5429L363.96 48.4235ZM486.488 75.0834C485.42 75.1048 484.392 75.49 483.573 76.1752C482.754 76.8604 482.193 77.8046 481.983 78.8517L478.725 93.8857L458.566 69.2211C458.407 69.0281 458.198 68.8836 457.961 68.8043C457.725 68.725 457.47 68.7142 457.228 68.773C456.985 68.8318 456.764 68.9579 456.59 69.1367C456.416 69.3156 456.296 69.5399 456.244 69.784L449.517 100.826C449.275 101.866 449.394 102.958 449.856 103.92C450.318 104.883 451.095 105.659 452.058 106.121C452.686 106.409 453.37 106.552 454.061 106.54C454.752 106.528 455.431 106.362 456.049 106.052C456.666 105.743 457.206 105.299 457.63 104.753C458.053 104.207 458.348 103.572 458.493 102.897L461.779 87.733L481.939 112.398C482.097 112.591 482.307 112.735 482.543 112.815C482.78 112.894 483.034 112.905 483.276 112.846C483.519 112.787 483.74 112.661 483.914 112.482C484.088 112.304 484.208 112.079 484.26 111.835L491.011 80.6802C491.158 80.0054 491.152 79.3062 490.993 78.6342C490.833 77.9622 490.525 77.3345 490.091 76.7974C489.657 76.2602 489.108 75.8274 488.484 75.5308C487.861 75.2341 487.178 75.0812 486.488 75.0834ZM421.312 69.4001C431.616 71.6328 438.135 78.7464 437.08 83.6171C436.024 88.4879 427.145 92.2648 416.842 90.0321C406.538 87.7993 400.019 80.6857 401.074 75.815C402.129 70.9442 411.008 67.1673 421.312 69.4001ZM423.269 60.3708C408.354 57.139 394.387 63.1803 392.072 73.8643C389.757 84.5484 399.97 95.8295 414.885 99.0613C429.799 102.293 443.766 96.2517 446.081 85.5677C448.396 74.8837 438.183 63.6026 423.269 60.3708Z" fill="#5AB179"/>
</g>
<g clip-path="url(#clip2_13215_13237)">
<path d="M408.866 -9.05893C405.928 -9.69567 403.109 -9.389 400.579 -8.4259L403.495 -21.8809L397.257 -23.2326L391.884 1.5638C390.253 9.09036 395.224 16.5363 402.905 18.2008C410.586 19.8652 418.286 15.2188 419.939 7.58919C421.592 -0.0404618 416.702 -7.36096 408.866 -9.05893ZM376.505 -15.6395C369.452 -16.4662 362.519 -11.8696 361.011 -4.91015C359.425 2.41019 364.528 9.99275 372.055 11.6237C379.581 13.2546 387.355 8.51634 388.952 1.14444C389.634 -2.00021 389.114 -5.08131 387.698 -7.76291L377.553 -27.4483L369.511 -29.1909L376.505 -15.6395ZM325.157 -11.0603L322.562 -26.7348L318.181 -27.6843L309.382 -14.4786L306.788 -30.153L299.983 -31.6276L304.465 -3.99389L308.847 -3.04437L318.163 -16.8936L320.91 -0.430394L325.292 0.519128L340.76 -22.7915L334.007 -24.2548L325.157 -11.0603ZM439.786 -2.30487C432.002 -3.99167 424.439 0.522381 422.819 7.99738C421.21 15.4208 425.308 23.1632 433.505 24.9393C438.402 26.0006 442.874 24.5409 446.558 21.2374L442.55 16.3209C440.622 18.4938 437.577 19.3452 434.897 18.7643C431.391 18.0047 428.462 14.8333 428.975 11.2204L449.338 15.6329L449.74 13.777C451.387 5.92998 447.261 -0.685102 439.786 -2.30487ZM519.176 14.8982C511.391 13.2114 503.88 17.7367 502.193 25.521C500.607 32.8413 504.76 40.3259 512.905 42.0909C517.803 43.1521 522.275 41.6924 525.959 38.3889L522.451 33.9047C520.465 35.849 517.442 36.5973 514.143 35.8823C510.895 35.1786 507.863 31.9849 508.376 28.3719L528.636 32.7621L529.094 30.6485C530.725 23.1219 526.651 16.518 519.176 14.8982ZM539.121 27.9637C539.467 26.3656 541.952 25.6087 544.839 26.2343C547.726 26.8598 550.62 28.9443 552.191 31.6594L556.926 27.9899C553.988 24.1148 550.725 21.7348 546.189 20.7517C540.518 19.523 534.145 20.7867 532.883 26.612C531.33 33.7777 537.559 35.6673 542.625 37.1967C545.467 38.0285 548 38.7933 547.598 40.6491C547.163 42.6596 544.023 42.9508 541.497 42.4035C538.198 41.6885 535.377 39.5121 533.811 36.5281L528.885 39.8324C531.254 44.3399 535.537 46.9949 540.073 47.9779C545.744 49.2067 552.551 47.9293 553.858 41.8977C555.333 35.0929 549.086 33.0375 544.289 31.5123C541.222 30.47 538.752 29.6649 539.121 27.9637ZM460.553 9.21148L461.804 3.43769L455.566 2.08602L450.059 27.501L456.296 28.8527L458.631 18.0784C460.752 12.2771 466.174 10.9154 471.845 12.1442L473.197 5.90645L472.578 5.7724C467.784 4.73351 463.91 5.6751 460.553 9.21148ZM480.297 13.4899L481.548 7.71612L475.31 6.36445L469.803 31.7795L476.041 33.1311L478.375 22.3568C480.664 15.7823 487.001 15.4284 491.589 16.4226L492.941 10.1849L492.271 10.0397C487.528 9.01194 483.665 9.90198 480.297 13.4899ZM348.914 5.58382L355.152 6.93549L363.273 -30.5426L357.035 -31.8943L348.914 5.58382ZM373.384 5.48904C369.105 4.56186 366.326 0.451382 367.231 -3.72431C368.136 -7.9 372.327 -10.554 376.606 -9.62678C380.833 -8.71077 383.715 -4.57795 382.799 -0.350713C381.883 3.87653 377.715 6.42739 373.384 5.48904ZM404.264 12.1804C400.036 11.2644 397.194 7.19427 398.122 2.91548C399.049 -1.36332 403.103 -3.88497 407.537 -2.92428C411.97 -1.96358 414.647 2.12455 413.742 6.30024C412.837 10.4759 408.543 13.1076 404.264 12.1804ZM338.14 3.24911L344.378 4.60079L349.885 -20.8142L343.647 -22.1659L338.14 3.24911ZM490.063 36.1696L496.301 37.5213L501.808 12.1063L495.57 10.7546L490.063 36.1696ZM349.37 -33.8792C346.844 -34.4266 344.283 -32.8225 343.725 -30.2449C343.155 -27.6158 344.981 -25.3311 347.404 -24.8061C350.084 -24.2252 352.627 -25.9951 353.129 -28.3149C353.643 -30.6863 351.947 -33.3207 349.37 -33.8792ZM501.344 -0.94757C498.818 -1.49494 496.206 0.0979528 495.648 2.67554C495.089 5.25312 496.749 7.55582 499.481 8.14788C502.213 8.73993 504.46 7.33777 505.008 4.81174C505.555 2.2857 503.922 -0.389025 501.344 -0.94757ZM510.192 23.4763C511.771 21.1736 514.3 20.2105 517.548 20.9143C520.796 21.6181 522.471 23.6003 522.771 26.2019L510.192 23.4763ZM430.751 6.26199C432.33 3.95937 434.859 2.99627 438.055 3.68886C441.303 4.39262 443.082 6.39718 443.381 8.99885C443.433 9.01002 430.751 6.26199 430.751 6.26199Z" fill="#5AB179"/>
</g>
<g clip-path="url(#clip3_13215_13237)">
<mask id="mask0_13215_13237" style="mask-type:luminance" maskUnits="userSpaceOnUse" x="115" y="69" width="48" height="48">
<path d="M124.087 69.811L162.803 78.2003L154.413 116.916L115.698 108.526L124.087 69.811Z" fill="white"/>
</mask>
<g mask="url(#mask0_13215_13237)">
<path d="M135.056 112.721C145.746 115.038 156.291 108.249 158.608 97.558C160.924 86.8671 154.136 76.3223 143.445 74.0057C132.754 71.689 122.209 78.4778 119.893 89.1687C117.576 99.8597 124.365 110.404 135.056 112.721Z" fill="#5AB179"/>
<path d="M139.743 106.238L144.235 85.5126L141.803 84.9857C140.051 84.606 138.641 84.6896 137.576 85.2385C136.517 85.7603 135.858 86.6187 135.599 87.815C135.403 88.7183 135.395 89.5232 135.576 90.2298C135.757 90.9363 136.096 91.6219 136.591 92.2859C137.087 92.9501 137.731 93.7016 138.523 94.5408L140.498 96.5954L131.693 104.495L126.59 103.389L134.948 96.0197L137.39 99.3861L135.327 97.3529C134.294 96.3112 133.336 95.1975 132.46 94.0201C131.687 92.9608 131.158 91.8734 130.872 90.7549C130.587 89.635 130.59 88.3981 130.884 87.0431C131.39 84.7047 132.637 82.9994 134.621 81.9271C136.639 80.8348 139.281 80.6427 142.549 81.3507L149.763 82.9139L144.486 107.266L139.743 106.238Z" fill="#2C332F"/>
</g>
<path d="M177.068 121.825C166.389 119.511 159.584 108.985 161.898 98.3076C164.212 87.6286 174.779 80.7956 185.458 83.1097C196.135 85.4235 202.927 96.0179 200.613 106.697C198.299 117.375 187.746 124.139 177.068 121.825Z" fill="#5AB179"/>
<path d="M181.892 85.0795L152.995 114.095L162.895 116.24L179.579 99.5214L179.304 99.3173L172.834 112.467L179.876 115.344L189.452 107.515L189.089 107.224L184.218 117.418L200.831 117.835L198.738 111.769L192.703 111.839L193.212 112.767L198.322 102.126L192.987 96.6036L182.592 105.106L182.954 105.398L189.226 92.665L181.892 85.0795Z" fill="#2C332F"/>
<path d="M181.892 85.0795L152.995 114.095L162.895 116.24L179.579 99.5214L179.304 99.3173L172.834 112.467L179.876 115.344L189.452 107.515L189.089 107.224L184.218 117.418L190.897 117.586L198.322 102.126L192.987 96.6036L182.592 105.106L182.954 105.398L189.226 92.665L181.892 85.0795Z" fill="#2C332F"/>
<path d="M205.398 120.465L222.712 98.7211L231.878 100.707L230.539 115.94L243.039 103.125L252.127 105.094L246.849 129.447L237.962 127.521L240.794 114.448L229.71 125.733L220.822 123.807L221.969 110.243L212.572 122.019L205.398 120.465ZM275.197 130.54C275.018 131.365 274.856 132.179 274.71 132.98C274.564 133.784 274.447 134.579 274.36 135.366L266.109 133.578C265.996 133.153 265.923 132.719 265.89 132.28C265.846 131.699 265.861 131.115 265.934 130.537C264.865 131.362 263.607 131.965 262.161 132.347C260.748 132.71 258.858 132.634 256.494 132.122C254.102 131.604 252.31 130.63 251.116 129.204C249.95 127.783 249.569 126.142 249.972 124.282C250.347 122.555 251.125 121.333 252.31 120.616C253.527 119.878 255.238 119.553 257.445 119.643C259.658 119.703 262.424 120.094 265.745 120.814L267.818 121.263L267.913 120.825C268.097 119.975 267.88 119.246 267.26 118.639C266.64 118.032 265.347 117.515 263.382 117.089C261.442 116.669 259.58 116.53 257.796 116.672C256.046 116.792 254.6 116.98 253.46 117.235L254.617 111.893C255.879 111.721 257.539 111.636 259.598 111.637C261.688 111.618 264.008 111.884 266.56 112.437C269.137 112.995 271.263 113.706 272.941 114.571C274.624 115.408 275.809 116.485 276.496 117.803C277.191 119.094 277.327 120.709 276.907 122.649L275.197 130.54ZM281.136 116.222L289.388 118.01L289.132 121.5C290.43 120.391 291.848 119.684 293.39 119.377C294.93 119.071 296.617 119.117 298.451 119.515C300.523 119.964 302.303 120.739 303.789 121.839C305.246 122.902 306.351 124.377 306.96 126.074C307.59 127.795 307.652 129.813 307.152 132.124C306.651 134.435 305.756 136.259 304.464 137.592C303.207 138.906 301.657 139.767 299.817 140.173C297.974 140.582 295.978 140.552 293.826 140.086C292.283 139.762 290.816 139.146 289.503 138.272C288.248 137.389 287.251 136.213 286.513 134.746L284.716 143.037L275.747 141.093L281.137 116.221L281.136 116.222ZM333.139 137.755C333.565 135.788 334.477 134.15 335.874 132.839C337.297 131.535 339.1 130.661 341.282 130.215C343.498 129.749 345.974 129.813 348.711 130.406C351.554 131.022 353.826 132.028 355.526 133.425C357.252 134.829 358.305 136.518 358.684 138.491C359.09 140.471 358.732 142.634 357.612 144.978L341.869 141.567C341.94 142.778 342.458 143.794 343.42 144.615C344.416 145.415 346.002 146.051 348.18 146.523C349.695 146.851 351.132 147.024 352.492 147.039C353.776 147.033 355.059 146.964 356.335 146.83L355.308 151.572C354.049 151.856 352.682 152.004 351.205 152.018C349.754 152.037 347.899 151.803 345.641 151.314C340.671 150.237 337.164 148.517 335.117 146.154C333.101 143.77 332.442 140.971 333.139 137.755ZM360.892 133.503L383.651 138.435L382.545 143.538L375.45 142L372.289 156.587L363.322 154.644L366.482 140.057L359.786 138.606L360.892 133.503ZM310.99 122.69L319.958 124.633L318.023 133.561L328.448 126.473L336.181 128.149L326.509 134.649L333.548 148.192L322.707 145.843L317.574 135.634L315.691 144.323L306.724 142.379L310.99 122.69ZM347.784 134.878C346.56 134.613 345.514 134.762 344.641 135.324C343.773 135.859 343.116 136.649 342.667 137.692L350.558 139.402C350.769 138.307 350.669 137.353 350.261 136.541C349.857 135.703 349.032 135.149 347.784 134.878ZM297.985 130.138C298.331 128.543 298.165 127.185 297.489 126.066C296.847 124.926 295.728 124.182 294.134 123.837C292.673 123.52 291.352 123.707 290.174 124.397C289 125.062 288.23 126.243 287.861 127.944C287.492 129.645 287.685 131.063 288.441 132.201C289.229 133.318 290.366 134.037 291.854 134.359C293.502 134.716 294.84 134.505 295.871 133.727C296.929 132.955 297.634 131.759 297.985 130.138ZM267.032 124.89L265 124.449C263.06 124.029 261.63 123.888 260.71 124.022C259.818 124.163 259.274 124.684 259.078 125.587C258.911 126.358 259.053 126.987 259.503 127.474C259.987 127.941 260.613 128.257 261.385 128.424C262.554 128.678 263.556 128.672 264.392 128.409C265.26 128.124 265.971 127.735 266.522 127.242L267.032 124.89Z" fill="#5AB179"/>
</g>
<g clip-path="url(#clip4_13215_13237)">
<path d="M542.716 172.452C539.778 171.816 536.959 172.122 534.429 173.085L537.345 159.63L531.107 158.279L525.734 183.075C524.103 190.602 529.074 198.048 536.755 199.712C544.436 201.376 552.136 196.73 553.789 189.1C555.442 181.471 550.552 174.15 542.716 172.452ZM510.355 165.872C503.302 165.045 496.369 169.642 494.861 176.601C493.275 183.921 498.378 191.504 505.905 193.135C513.432 194.766 521.205 190.028 522.802 182.656C523.484 179.511 522.964 176.43 521.548 173.748L511.403 154.063L503.361 152.32L510.355 165.872ZM459.007 170.451L456.413 154.776L452.031 153.827L443.232 167.033L440.638 151.358L433.833 149.884L438.316 177.517L442.697 178.467L452.013 164.618L454.761 181.081L459.142 182.03L474.61 158.72L467.857 157.256L459.007 170.451ZM573.636 179.206C565.852 177.52 558.289 182.034 556.669 189.509C555.061 196.932 559.158 204.674 567.355 206.451C572.252 207.512 576.724 206.052 580.409 202.749L576.401 197.832C574.472 200.005 571.427 200.856 568.747 200.276C565.241 199.516 562.312 196.345 562.825 192.732L583.188 197.144L583.59 195.288C585.237 187.441 581.111 180.826 573.636 179.206ZM653.026 196.409C645.241 194.723 637.73 199.248 636.043 207.032C634.457 214.353 638.61 221.837 646.755 223.602C651.653 224.663 656.125 223.204 659.809 219.9L656.301 215.416C654.315 217.36 651.292 218.109 647.993 217.394C644.745 216.69 641.713 213.496 642.226 209.883L662.486 214.273L662.944 212.16C664.575 204.633 660.501 198.029 653.026 196.409ZM672.971 209.475C673.317 207.877 675.802 207.12 678.689 207.746C681.576 208.371 684.47 210.456 686.041 213.171L690.776 209.501C687.838 205.626 684.575 203.246 680.039 202.263C674.368 201.034 667.995 202.298 666.733 208.123C665.18 215.289 671.41 217.178 676.475 218.708C679.318 219.54 681.85 220.305 681.448 222.16C681.013 224.171 677.873 224.462 675.347 223.915C672.048 223.2 669.227 221.023 667.661 218.039L662.735 221.344C665.104 225.851 669.387 228.506 673.923 229.489C679.594 230.718 686.401 229.44 687.708 223.409C689.183 216.604 682.936 214.549 678.139 213.024C675.072 211.981 672.602 211.176 672.971 209.475ZM594.403 190.723L595.654 184.949L589.416 183.597L583.909 209.012L590.147 210.364L592.481 199.59C594.602 193.788 600.024 192.427 605.695 193.655L607.047 187.418L606.428 187.284C601.634 186.245 597.76 187.186 594.403 190.723ZM614.147 195.001L615.398 189.227L609.16 187.876L603.653 213.291L609.891 214.642L612.226 203.868C614.514 197.294 620.851 196.94 625.439 197.934L626.791 191.696L626.121 191.551C621.378 190.523 617.515 191.413 614.147 195.001ZM482.764 187.095L489.002 188.447L497.123 150.969L490.886 149.617L482.764 187.095ZM507.234 187C502.956 186.073 500.176 181.963 501.081 177.787C501.986 173.611 506.177 170.957 510.456 171.884C514.683 172.8 517.566 176.933 516.65 181.161C515.734 185.388 511.565 187.939 507.234 187ZM538.114 193.692C533.887 192.776 531.044 188.705 531.972 184.427C532.899 180.148 536.953 177.626 541.387 178.587C545.82 179.548 548.497 183.636 547.592 187.811C546.687 191.987 542.393 194.619 538.114 193.692ZM471.99 184.76L478.228 186.112L483.735 160.697L477.497 159.345L471.99 184.76ZM623.913 217.681L630.151 219.032L635.658 193.617L629.42 192.266L623.913 217.681ZM483.22 147.632C480.694 147.085 478.133 148.689 477.575 151.266C477.005 153.895 478.831 156.18 481.254 156.705C483.934 157.286 486.477 155.516 486.98 153.196C487.493 150.825 485.797 148.191 483.22 147.632ZM635.194 180.564C632.668 180.016 630.056 181.609 629.498 184.187C628.939 186.764 630.599 189.067 633.331 189.659C636.064 190.251 638.31 188.849 638.858 186.323C639.405 183.797 637.772 181.122 635.194 180.564ZM644.043 204.987C645.621 202.685 648.15 201.722 651.398 202.426C654.646 203.129 656.321 205.112 656.621 207.713L644.043 204.987ZM564.601 187.773C566.18 185.471 568.709 184.507 571.905 185.2C575.153 185.904 576.932 187.908 577.232 190.51C577.283 190.521 564.601 187.773 564.601 187.773Z" fill="#5AB179"/>
</g>
<defs>
<clipPath id="clip0_13215_13237">
<rect width="263.741" height="39.6139" fill="white" transform="translate(8.3894 -29.5381) rotate(12.2265)"/>
</clipPath>
<clipPath id="clip1_13215_13237">
<rect width="180.973" height="39.6139" fill="white" transform="translate(315.31 36.9692) rotate(12.2265)"/>
</clipPath>
<clipPath id="clip2_13215_13237">
<rect width="263.741" height="39.6139" fill="white" transform="translate(302.664 -44) rotate(12.2265)"/>
</clipPath>
<clipPath id="clip3_13215_13237">
<rect width="269.374" height="39.6139" fill="white" transform="translate(124.087 69.811) rotate(12.2265)"/>
</clipPath>
<clipPath id="clip4_13215_13237">
<rect width="263.741" height="39.6139" fill="white" transform="translate(436.514 137.511) rotate(12.2265)"/>
</clipPath>
</defs>
</svg>
