<svg width="1089" height="308" viewBox="0 0 1089 308" fill="none" xmlns="http://www.w3.org/2000/svg">
<g clip-path="url(#clip0_13216_10012)">
<path d="M163.433 12.4596C159.242 11.5515 155.221 11.9889 151.614 13.3625L155.772 -5.82733L146.876 -7.75511L139.212 27.61C136.886 38.3445 143.976 48.964 154.931 51.3379C165.886 53.7118 176.867 47.0851 179.225 36.2035C181.583 25.3219 174.609 14.8813 163.433 12.4596ZM117.279 3.07433C107.22 1.89524 97.332 8.45094 95.1812 18.3767C92.9188 28.8171 100.197 39.6315 110.932 41.9576C121.667 44.2837 132.753 37.5258 135.031 27.0119C136.003 22.5269 135.262 18.1326 133.242 14.308L118.774 -13.7676L107.304 -16.253L117.279 3.07433ZM44.0451 9.60521L40.3449 -12.75L34.0954 -14.1042L21.5468 4.72999L17.8466 -17.6252L8.14139 -19.7282L14.5346 19.6835L20.7842 21.0377L34.0705 1.28567L37.9888 24.7658L44.2383 26.12L66.2989 -7.12597L56.6673 -9.21307L44.0451 9.60521ZM207.531 22.0924C196.429 19.6866 185.643 26.1247 183.333 36.7857C181.039 47.3731 186.882 58.4154 198.573 60.9486C205.558 62.4622 211.936 60.3804 217.19 55.6688L211.474 48.6569C208.724 51.7559 204.381 52.9701 200.558 52.1417C195.558 51.0583 191.381 46.5352 192.113 41.3824L221.155 47.6756L221.728 45.0287C224.077 33.8371 218.192 24.4025 207.531 22.0924ZM320.758 46.6278C309.656 44.222 298.944 50.676 296.538 61.7781C294.276 72.2186 300.199 82.8932 311.816 85.4105C318.801 86.924 325.179 84.8422 330.434 80.1307L325.43 73.7351C322.597 76.5082 318.286 77.5754 313.581 76.5557C308.949 75.552 304.624 70.9971 305.356 65.8443L334.251 72.1056L334.904 69.0911C337.23 58.3566 331.419 48.9379 320.758 46.6278ZM349.205 65.262C349.699 62.9828 353.242 61.9033 357.36 62.7955C361.477 63.6877 365.605 66.6606 367.845 70.533L374.599 65.2994C370.408 59.7727 365.755 56.3782 359.285 54.9762C351.197 53.2237 342.109 55.026 340.308 63.3342C338.094 73.5541 346.978 76.249 354.203 78.4304C358.256 79.6167 361.869 80.7074 361.295 83.3542C360.674 86.2217 356.196 86.637 352.594 85.8563C347.888 84.8367 343.865 81.7326 341.631 77.4767L334.606 82.1895C337.985 88.618 344.093 92.4047 350.563 93.8067C358.651 95.5592 368.36 93.7373 370.224 85.135C372.327 75.4298 363.417 72.4984 356.575 70.3231C352.202 68.8366 348.679 67.6883 349.205 65.262ZM237.149 38.5172L238.933 30.2825L230.037 28.3548L222.183 64.6021L231.079 66.5299L234.409 51.1634C237.433 42.8895 245.167 40.9474 253.255 42.7L255.182 33.8035L254.3 33.6124C247.462 32.1307 241.937 33.4736 237.149 38.5172ZM265.309 44.6192L267.093 36.3845L258.197 34.4568L250.342 70.7041L259.239 72.6319L262.569 57.2654C265.832 47.8886 274.871 47.384 281.414 48.8019L283.342 39.9055L282.386 39.6984C275.622 38.2327 270.113 39.502 265.309 44.6192ZM77.9283 33.3434L86.8247 35.2712L98.4073 -18.1808L89.5109 -20.1086L77.9283 33.3434ZM112.828 33.2082C106.725 31.8859 102.761 26.0234 104.052 20.068C105.342 14.1125 111.32 10.3274 117.423 11.6497C123.451 12.9562 127.563 18.8505 126.256 24.8795C124.95 30.9084 119.004 34.5465 112.828 33.2082ZM156.869 42.7515C150.84 41.4451 146.786 35.6403 148.109 29.5378C149.431 23.4353 155.214 19.8388 161.537 21.209C167.86 22.5791 171.677 28.4097 170.387 34.3652C169.096 40.3206 162.971 44.0739 156.869 42.7515ZM62.5618 30.0136L71.4582 31.9414L79.3127 -4.30599L70.4163 -6.23378L62.5618 30.0136ZM279.237 76.9654L288.134 78.8932L295.988 42.6458L287.092 40.7181L279.237 76.9654ZM78.5779 -22.9396C74.9752 -23.7202 71.3235 -21.4325 70.5269 -17.7563C69.7143 -14.0066 72.3182 -10.7481 75.7739 -9.99932C79.5971 -9.17086 83.2232 -11.6951 83.9401 -15.0037C84.673 -18.3858 82.2541 -22.143 78.5779 -22.9396ZM295.327 24.0282C291.724 23.2475 287.999 25.5193 287.202 29.1956C286.406 32.8718 288.773 36.1559 292.67 37.0003C296.567 37.8447 299.771 35.8449 300.552 32.2422C301.333 28.6396 299.003 24.8248 295.327 24.0282ZM307.947 58.862C310.198 55.5779 313.805 54.2043 318.437 55.208C323.069 56.2118 325.459 59.0388 325.886 62.7494L307.947 58.862ZM194.646 34.3106C196.897 31.0266 200.505 29.653 205.063 30.6408C209.695 31.6445 212.232 34.5034 212.659 38.214C212.733 38.2299 194.646 34.3106 194.646 34.3106Z" fill="#5AB179"/>
</g>
<g clip-path="url(#clip1_13216_10012)">
<path fill-rule="evenodd" clip-rule="evenodd" d="M479.993 64.2019C474.452 62.3756 468.481 62.3106 462.901 64.0157C457.321 65.7207 452.406 69.1122 448.831 73.724C445.257 78.3357 443.199 83.9413 442.939 89.7703C442.68 95.5992 444.233 101.365 447.384 106.276C450.535 111.187 455.129 115.001 460.536 117.195C465.942 119.389 471.896 119.854 477.577 118.527C483.259 117.2 488.391 114.145 492.266 109.784C496.141 105.422 498.571 99.9669 499.22 94.1684C499.949 87.7245 498.434 81.2263 494.932 75.7682C491.43 70.3101 486.155 66.2254 479.993 64.2019ZM469.986 106.064C466.847 105.813 463.866 104.584 461.462 102.55C459.058 100.517 457.351 97.7814 456.582 94.728C455.813 91.6746 456.02 88.457 457.174 85.5273C458.328 82.5976 460.371 80.1031 463.015 78.3945C465.66 76.6859 468.774 75.849 471.919 76.0014C475.064 76.1538 478.083 77.2879 480.55 79.2443C483.017 81.2007 484.809 83.881 485.675 86.9086C486.54 89.9361 486.435 93.1587 485.374 96.1234C484.259 99.242 482.147 101.906 479.365 103.703C476.583 105.5 473.287 106.33 469.986 106.064ZM519.087 73.8163C518.129 73.6111 517.137 73.6221 516.184 73.8484C515.231 74.0747 514.341 74.5106 513.577 75.1244C512.814 75.7382 512.197 76.5144 511.771 77.3967C511.346 78.2789 511.122 79.245 511.117 80.2245C511.065 83.3902 513.45 86.0778 516.538 86.7469L534.456 90.6297L498.575 121.489C498.309 121.717 498.113 122.014 498.007 122.347C497.901 122.681 497.89 123.037 497.975 123.376C498.061 123.715 498.238 124.024 498.489 124.267C498.74 124.511 499.054 124.68 499.395 124.755L543.135 134.233C546.221 134.902 549.507 133.444 550.77 130.54C551.171 129.646 551.367 128.674 551.345 127.695C551.323 126.716 551.083 125.754 550.643 124.88C550.202 124.005 549.572 123.239 548.799 122.639C548.025 122.038 547.127 121.617 546.171 121.407L524.339 116.676L560.192 85.8406C560.46 85.6106 560.659 85.3106 560.766 84.9741C560.872 84.6377 560.883 84.2781 560.797 83.9357C560.711 83.5934 560.531 83.2818 560.278 83.0359C560.025 82.7901 559.708 82.6197 559.363 82.5439L519.087 73.8163ZM693.838 111.839C692.316 111.87 690.849 112.419 689.681 113.396C688.513 114.373 687.713 115.72 687.414 117.214L682.768 138.655L654.015 103.478C653.79 103.203 653.491 102.997 653.153 102.884C652.816 102.771 652.453 102.755 652.107 102.839C651.761 102.923 651.446 103.103 651.198 103.358C650.95 103.613 650.779 103.933 650.704 104.281L641.111 148.554C640.764 150.037 640.935 151.594 641.594 152.967C642.253 154.34 643.36 155.447 644.734 156.105C645.63 156.516 646.606 156.72 647.591 156.704C648.576 156.687 649.545 156.449 650.425 156.007C651.306 155.566 652.077 154.933 652.68 154.154C653.284 153.375 653.705 152.471 653.912 151.508L658.598 129.88L687.351 165.058C687.577 165.333 687.875 165.539 688.213 165.652C688.55 165.765 688.913 165.781 689.258 165.697C689.604 165.613 689.919 165.433 690.167 165.178C690.416 164.923 690.587 164.604 690.661 164.256L700.29 119.821C700.499 118.859 700.49 117.862 700.263 116.903C700.036 115.945 699.597 115.05 698.978 114.284C698.359 113.518 697.575 112.9 696.686 112.477C695.797 112.054 694.823 111.836 693.838 111.839ZM600.884 103.733C615.58 106.918 624.877 117.063 623.372 124.01C621.867 130.957 609.203 136.344 594.508 133.159C579.812 129.975 570.514 119.829 572.02 112.883C573.525 105.936 586.188 100.549 600.884 103.733ZM603.674 90.8558C582.403 86.2464 562.483 94.8628 559.181 110.101C555.879 125.338 570.446 141.428 591.717 146.037C612.988 150.646 632.908 142.03 636.21 126.792C639.512 111.554 624.945 95.465 603.674 90.8558Z" fill="#5AB179"/>
</g>
<g clip-path="url(#clip2_13216_10012)">
<mask id="mask0_13216_10012" style="mask-type:luminance" maskUnits="userSpaceOnUse" x="760" y="127" width="68" height="68">
<path d="M772.071 127.334L827.287 139.299L815.322 194.516L760.106 182.551L772.071 127.334Z" fill="white"/>
</mask>
<g mask="url(#mask0_13216_10012)">
<path d="M787.714 188.534C802.962 191.838 818.001 182.155 821.305 166.908C824.609 151.66 814.927 136.621 799.679 133.317C784.431 130.013 769.392 139.695 766.088 154.943C762.784 170.19 772.466 185.23 787.714 188.534Z" fill="#5AB179"/>
<path d="M794.4 179.288L800.805 149.729L797.338 148.977C794.838 148.436 792.828 148.555 791.309 149.338C789.799 150.082 788.859 151.306 788.49 153.012C788.21 154.301 788.199 155.449 788.456 156.456C788.714 157.464 789.198 158.442 789.904 159.389C790.612 160.336 791.53 161.408 792.66 162.605L795.476 165.535L782.918 176.802L775.641 175.225L787.561 164.714L791.043 169.515L788.101 166.615C786.627 165.13 785.261 163.541 784.013 161.862C782.91 160.351 782.156 158.8 781.748 157.205C781.341 155.608 781.345 153.844 781.764 151.911C782.487 148.576 784.264 146.144 787.095 144.615C789.972 143.057 793.741 142.783 798.401 143.793L808.69 146.022L801.164 180.754L794.4 179.288Z" fill="#2C332F"/>
</g>
<path d="M847.633 201.517C832.403 198.217 822.697 183.205 825.997 167.976C829.297 152.746 844.368 143.001 859.598 146.301C874.827 149.601 884.514 164.711 881.213 179.941C877.913 195.17 862.862 204.817 847.633 201.517Z" fill="#5AB179"/>
<path d="M854.513 149.111L813.3 190.493L827.418 193.553L851.214 169.708L850.822 169.417L841.594 188.171L851.638 192.274L865.296 181.109L864.777 180.694L857.83 195.233L881.525 195.827L878.539 187.176L869.931 187.276L870.658 188.599L877.945 173.423L870.337 165.547L855.511 177.673L856.028 178.089L864.973 159.929L854.513 149.111Z" fill="#2C332F"/>
<path d="M854.513 149.111L813.3 190.493L827.418 193.553L851.214 169.708L850.822 169.417L841.594 188.171L851.638 192.274L865.296 181.109L864.777 180.694L857.83 195.233L867.355 195.472L877.945 173.423L870.337 165.547L855.511 177.673L856.028 178.089L864.973 159.929L854.513 149.111Z" fill="#2C332F"/>
<path d="M888.038 199.578L912.731 168.567L925.804 171.4L923.895 193.125L941.722 174.847L954.683 177.656L947.157 212.389L934.481 209.642L938.521 190.997L922.712 207.092L910.036 204.345L911.671 185L898.27 201.795L888.038 199.578ZM987.586 213.948C987.331 215.124 987.101 216.285 986.892 217.428C986.684 218.574 986.517 219.708 986.393 220.831L974.625 218.281C974.464 217.675 974.359 217.055 974.313 216.429C974.25 215.601 974.271 214.768 974.376 213.943C972.851 215.12 971.057 215.98 968.995 216.525C966.979 217.042 964.283 216.934 960.912 216.204C957.501 215.465 954.944 214.076 953.242 212.042C951.579 210.015 951.036 207.676 951.611 205.022C952.144 202.559 953.254 200.817 954.944 199.793C956.681 198.742 959.121 198.278 962.269 198.405C965.424 198.492 969.369 199.05 974.107 200.076L977.063 200.717L977.198 200.091C977.461 198.88 977.15 197.84 976.267 196.974C975.383 196.108 973.538 195.371 970.735 194.764C967.969 194.164 965.314 193.966 962.769 194.168C960.273 194.341 958.211 194.609 956.585 194.971L958.236 187.353C960.035 187.107 962.402 186.986 965.338 186.988C968.32 186.96 971.629 187.34 975.268 188.128C978.943 188.925 981.976 189.939 984.368 191.172C986.769 192.366 988.459 193.902 989.439 195.782C990.43 197.623 990.624 199.927 990.025 202.693L987.586 213.948ZM996.058 193.527L1007.83 196.078L1007.46 201.055C1009.31 199.473 1011.33 198.464 1013.53 198.027C1015.73 197.59 1018.14 197.657 1020.75 198.223C1023.71 198.864 1026.25 199.969 1028.37 201.538C1030.44 203.054 1032.02 205.158 1032.89 207.578C1033.79 210.033 1033.88 212.91 1033.16 216.207C1032.45 219.503 1031.17 222.103 1029.33 224.005C1027.53 225.879 1025.32 227.107 1022.7 227.687C1020.07 228.27 1017.23 228.227 1014.16 227.562C1011.95 227.1 1009.86 226.222 1007.99 224.976C1006.2 223.716 1004.78 222.038 1003.73 219.947L1001.16 231.77L988.371 228.999L996.058 193.526L996.058 193.527ZM1070.22 224.238C1070.83 221.433 1072.13 219.096 1074.13 217.227C1076.15 215.366 1078.73 214.119 1081.84 213.484C1085 212.819 1088.53 212.91 1092.43 213.756C1096.49 214.635 1099.73 216.069 1102.15 218.063C1104.62 220.065 1106.12 222.473 1106.66 225.288C1107.24 228.111 1106.73 231.196 1105.13 234.54L1082.68 229.674C1082.78 231.402 1083.52 232.851 1084.89 234.021C1086.31 235.163 1088.57 236.07 1091.68 236.743C1093.84 237.211 1095.89 237.457 1097.83 237.478C1099.66 237.471 1101.49 237.371 1103.31 237.18L1101.84 243.944C1100.05 244.349 1098.1 244.561 1095.99 244.58C1093.92 244.608 1091.28 244.273 1088.06 243.575C1080.97 242.04 1075.96 239.587 1073.05 236.217C1070.17 232.817 1069.23 228.825 1070.22 224.238ZM1109.81 218.174L1142.27 225.208L1140.69 232.485L1130.57 230.292L1126.06 251.096L1113.27 248.325L1117.78 227.521L1108.23 225.451L1109.81 218.174ZM1038.64 202.752L1051.43 205.523L1048.67 218.256L1063.53 208.147L1074.56 210.537L1060.77 219.807L1070.81 239.123L1055.35 235.773L1048.03 221.212L1045.34 233.605L1032.55 230.833L1038.64 202.752ZM1091.11 220.135C1089.37 219.757 1087.87 219.969 1086.63 220.771C1085.39 221.534 1084.45 222.66 1083.81 224.148L1095.07 226.587C1095.37 225.025 1095.23 223.665 1094.64 222.506C1094.07 221.312 1092.89 220.521 1091.11 220.135ZM1020.09 213.374C1020.58 211.099 1020.34 209.163 1019.38 207.567C1018.46 205.941 1016.87 204.88 1014.59 204.387C1012.51 203.936 1010.63 204.202 1008.95 205.186C1007.27 206.134 1006.17 207.819 1005.65 210.245C1005.12 212.671 1005.4 214.694 1006.48 216.317C1007.6 217.909 1009.22 218.935 1011.34 219.395C1013.69 219.904 1015.6 219.603 1017.07 218.494C1018.58 217.393 1019.59 215.686 1020.09 213.374ZM975.942 205.889L973.043 205.261C970.277 204.661 968.237 204.46 966.926 204.652C965.653 204.852 964.877 205.596 964.598 206.884C964.36 207.983 964.562 208.88 965.204 209.574C965.894 210.24 966.787 210.692 967.887 210.93C969.555 211.292 970.984 211.284 972.176 210.908C973.414 210.502 974.429 209.947 975.215 209.244L975.942 205.889Z" fill="#5AB179"/>
</g>
<g clip-path="url(#clip3_13216_10012)">
<path d="M583.133 -8.16636C578.942 -9.07449 574.921 -8.63711 571.314 -7.26352L575.472 -26.4533L566.576 -28.3811L558.912 6.984C556.586 17.7185 563.676 28.3381 574.631 30.7119C585.586 33.0858 596.567 26.4591 598.925 15.5775C601.283 4.69596 594.308 -5.74468 583.133 -8.16636ZM536.979 -17.5516C526.92 -18.7307 517.032 -12.175 514.881 -2.24929C512.619 8.19113 519.897 19.0055 530.632 21.3316C541.366 23.6577 552.453 16.8998 554.731 6.38589C555.703 1.90093 554.962 -2.4934 552.942 -6.31795L538.473 -34.3936L527.004 -36.879L536.979 -17.5516ZM463.745 -11.0208L460.045 -33.376L453.795 -34.7302L441.247 -15.896L437.547 -38.2512L427.841 -40.3542L434.235 -0.942504L440.484 0.411722L453.77 -19.3403L457.689 4.13983L463.938 5.49406L485.999 -27.7519L476.367 -29.8391L463.745 -11.0208ZM627.231 1.46641C616.129 -0.939334 605.343 5.4987 603.033 16.1597C600.739 26.7472 606.582 37.7894 618.273 40.3226C625.257 41.8362 631.636 39.7544 636.89 35.0428L631.174 28.0309C628.424 31.1299 624.081 32.3442 620.258 31.5157C615.258 30.4323 611.081 25.9092 611.813 20.7564L640.855 27.0496L641.428 24.4027C643.777 13.2111 637.892 3.77656 627.231 1.46641ZM740.458 26.0018C729.356 23.5961 718.644 30.05 716.238 41.1522C713.976 51.5926 719.899 62.2673 731.516 64.7845C738.5 66.2981 744.879 64.2163 750.133 59.5047L745.13 53.1092C742.297 55.8822 737.986 56.9494 733.28 55.9298C728.648 54.9261 724.324 50.3711 725.056 45.2183L753.951 51.4796L754.604 48.4651C756.93 37.7306 751.119 28.312 740.458 26.0018ZM768.905 44.6361C769.399 42.3568 772.942 41.2773 777.06 42.1695C781.177 43.0617 785.305 46.0346 787.545 49.907L794.299 44.6734C790.108 39.1467 785.455 35.7522 778.985 34.3502C770.897 32.5977 761.809 34.4 760.008 42.7083C757.794 52.9281 766.678 55.623 773.903 57.8044C777.956 58.9907 781.569 60.0814 780.995 62.7283C780.374 65.5957 775.896 66.011 772.294 65.2303C767.588 64.2107 763.565 61.1066 761.331 56.8507L754.306 61.5635C757.685 67.992 763.793 71.7787 770.263 73.1807C778.351 74.9333 788.059 73.1113 789.924 64.509C792.027 54.8038 783.117 51.8724 776.275 49.6972C771.902 48.2106 768.379 47.0623 768.905 44.6361ZM656.849 17.8913L658.633 9.65657L649.737 7.72879L641.883 43.9762L650.779 45.9039L654.109 30.5374C657.133 22.2635 664.867 20.3214 672.954 22.074L674.882 13.1776L674 12.9864C667.162 11.5047 661.637 12.8476 656.849 17.8913ZM685.009 23.9933L686.793 15.7586L677.897 13.8308L670.042 50.0781L678.939 52.0059L682.268 36.6394C685.532 27.2627 694.571 26.758 701.114 28.176L703.042 19.2795L702.086 19.0724C695.322 17.6067 689.813 18.8761 685.009 23.9933ZM497.628 12.7174L506.525 14.6452L518.107 -38.8068L509.211 -40.7346L497.628 12.7174ZM532.528 12.5822C526.425 11.2599 522.461 5.39744 523.752 -0.558011C525.042 -6.51346 531.02 -10.2986 537.122 -8.97624C543.151 -7.66981 547.263 -1.7755 545.956 4.25348C544.65 10.2824 538.704 13.9205 532.528 12.5822ZM576.569 22.1256C570.54 20.8191 566.486 15.0143 567.809 8.91178C569.131 2.80928 574.914 -0.787152 581.237 0.583006C587.56 1.95316 591.377 7.78375 590.086 13.7392C588.796 19.6946 582.671 23.4479 576.569 22.1256ZM482.262 9.38762L491.158 11.3154L499.013 -24.932L490.116 -26.8598L482.262 9.38762ZM698.937 56.3395L707.834 58.2672L715.688 22.0199L706.792 20.0921L698.937 56.3395ZM498.278 -43.5655C494.675 -44.3462 491.023 -42.0585 490.227 -38.3823C489.414 -34.6325 492.018 -31.3741 495.474 -30.6253C499.297 -29.7968 502.923 -32.3211 503.64 -35.6297C504.373 -39.0118 501.954 -42.7689 498.278 -43.5655ZM715.027 3.40223C711.424 2.62155 707.699 4.89337 706.902 8.56958C706.106 12.2458 708.473 15.5299 712.37 16.3743C716.267 17.2187 719.471 15.2189 720.252 11.6163C721.032 8.01359 718.703 4.19883 715.027 3.40223ZM727.647 38.236C729.898 34.9519 733.505 33.5783 738.137 34.5821C742.769 35.5858 745.159 38.4129 745.586 42.1234L727.647 38.236ZM614.346 13.6846C616.597 10.4006 620.205 9.02701 624.763 10.0148C629.395 11.0185 631.932 13.8775 632.359 17.588C632.433 17.6039 614.346 13.6846 614.346 13.6846Z" fill="#5AB179"/>
</g>
<g clip-path="url(#clip4_13216_10012)">
<path fill-rule="evenodd" clip-rule="evenodd" d="M899.693 43.5754C894.152 41.7492 888.181 41.6841 882.601 43.3892C877.02 45.0943 872.106 48.4858 868.531 53.0975C864.957 57.7093 862.899 63.3149 862.639 69.1438C862.38 74.9728 863.933 80.739 867.084 85.6498C870.234 90.5606 874.829 94.375 880.236 96.5686C885.642 98.7622 891.596 99.2275 897.277 97.9004C902.959 96.5732 908.09 93.5189 911.966 89.1572C915.841 84.7954 918.271 79.3404 918.92 73.542C919.649 67.098 918.134 60.5999 914.632 55.1418C911.13 49.6836 905.854 45.5989 899.693 43.5754ZM889.686 85.438C886.547 85.1863 883.566 83.9573 881.162 81.924C878.758 79.8906 877.051 77.1549 876.282 74.1016C875.513 71.0482 875.72 67.8305 876.874 64.9008C878.028 61.9711 880.071 59.4767 882.715 57.768C885.36 56.0594 888.474 55.2225 891.619 55.3749C894.764 55.5273 897.783 56.6614 900.25 58.6178C902.717 60.5742 904.509 63.2546 905.375 66.2821C906.24 69.3097 906.135 72.5323 905.074 75.497C903.959 78.6155 901.847 81.2796 899.065 83.0767C896.283 84.8738 892.987 85.7038 889.686 85.438ZM938.787 53.1898C937.829 52.9847 936.837 52.9956 935.884 53.2219C934.931 53.4482 934.041 53.8841 933.277 54.4979C932.514 55.1117 931.897 55.888 931.471 56.7702C931.046 57.6525 930.822 58.6185 930.817 59.598C930.765 62.7638 933.15 65.4514 936.238 66.1204L954.156 70.0032L918.275 100.863C918.009 101.091 917.813 101.388 917.707 101.721C917.601 102.054 917.59 102.41 917.675 102.749C917.76 103.088 917.938 103.397 918.189 103.641C918.44 103.884 918.754 104.053 919.095 104.129L962.835 113.607C965.921 114.275 969.207 112.817 970.47 109.913C970.871 109.02 971.067 108.048 971.045 107.069C971.023 106.09 970.783 105.128 970.343 104.253C969.902 103.378 969.272 102.613 968.499 102.012C967.725 101.411 966.827 100.991 965.871 100.781L944.039 96.0497L979.892 65.2141C980.16 64.9842 980.359 64.6841 980.466 64.3477C980.572 64.0112 980.583 63.6516 980.497 63.3093C980.411 62.9669 980.231 62.6553 979.978 62.4095C979.725 62.1636 979.408 61.9932 979.063 61.9174L938.787 53.1898ZM1113.54 91.2127C1112.02 91.2432 1110.55 91.7925 1109.38 92.7698C1108.21 93.747 1107.41 95.0937 1107.11 96.5871L1102.47 118.029L1073.72 82.8518C1073.49 82.5764 1073.19 82.3704 1072.85 82.2573C1072.52 82.1443 1072.15 82.1288 1071.81 82.2127C1071.46 82.2965 1071.15 82.4764 1070.9 82.7314C1070.65 82.9865 1070.48 83.3065 1070.4 83.6546L1060.81 127.927C1060.46 129.41 1060.63 130.967 1061.29 132.341C1061.95 133.714 1063.06 134.821 1064.43 135.479C1065.33 135.89 1066.31 136.094 1067.29 136.077C1068.28 136.06 1069.24 135.822 1070.13 135.381C1071.01 134.94 1071.78 134.306 1072.38 133.527C1072.98 132.749 1073.4 131.844 1073.61 130.881L1078.3 109.254L1107.05 144.432C1107.28 144.707 1107.58 144.913 1107.91 145.026C1108.25 145.139 1108.61 145.154 1108.96 145.07C1109.3 144.987 1109.62 144.807 1109.87 144.552C1110.12 144.297 1110.29 143.977 1110.36 143.629L1119.99 99.1949C1120.2 98.2325 1120.19 97.2353 1119.96 96.2769C1119.74 95.3185 1119.3 94.4232 1118.68 93.6572C1118.06 92.8911 1117.28 92.2738 1116.39 91.8507C1115.5 91.4277 1114.52 91.2096 1113.54 91.2127ZM1020.58 83.107C1035.28 86.2914 1044.58 96.4369 1043.07 103.384C1041.57 110.33 1028.9 115.717 1014.21 112.533C999.512 109.348 990.214 99.2028 991.72 92.2561C993.225 85.3093 1005.89 79.9226 1020.58 83.107ZM1023.37 70.2293C1002.1 65.62 982.183 74.2363 978.881 89.474C975.579 104.712 990.146 120.801 1011.42 125.41C1032.69 130.02 1052.61 121.403 1055.91 106.166C1059.21 90.9279 1044.65 74.8385 1023.37 70.2293Z" fill="#5AB179"/>
</g>
<g clip-path="url(#clip5_13216_10012)">
<mask id="mask1_13216_10012" style="mask-type:luminance" maskUnits="userSpaceOnUse" x="165" y="104" width="68" height="68">
<path d="M176.975 104.32L232.192 116.285L220.227 171.501L165.01 159.536L176.975 104.32Z" fill="white"/>
</mask>
<g mask="url(#mask1_13216_10012)">
<path d="M192.619 165.519C207.866 168.823 222.905 159.141 226.209 143.893C229.513 128.645 219.831 113.606 204.584 110.302C189.336 106.998 174.297 116.68 170.993 131.928C167.689 147.176 177.371 162.215 192.619 165.519Z" fill="#5AB179"/>
<path d="M199.305 156.273L205.71 126.714L202.242 125.963C199.743 125.421 197.732 125.54 196.214 126.323C194.704 127.067 193.764 128.291 193.394 129.998C193.115 131.286 193.103 132.434 193.361 133.442C193.618 134.449 194.102 135.427 194.808 136.374C195.517 137.321 196.435 138.393 197.565 139.59L200.381 142.52L187.823 153.787L180.545 152.21L192.466 141.699L195.948 146.501L193.006 143.601C191.532 142.115 190.166 140.527 188.917 138.847C187.815 137.337 187.06 135.786 186.653 134.191C186.245 132.593 186.25 130.829 186.669 128.897C187.391 125.562 189.169 123.13 192 121.6C194.877 120.042 198.646 119.768 203.306 120.778L213.595 123.008L206.069 157.739L199.305 156.273Z" fill="#2C332F"/>
</g>
<path d="M252.538 178.503C237.307 175.202 227.601 160.19 230.901 144.962C234.202 129.731 249.272 119.986 264.503 123.286C279.732 126.586 289.418 141.696 286.118 156.927C282.818 172.155 267.767 181.803 252.538 178.503Z" fill="#5AB179"/>
<path d="M259.417 126.096L218.204 167.479L232.323 170.538L256.118 146.693L255.726 146.402L246.498 165.156L256.543 169.26L270.2 158.094L269.681 157.679L262.735 172.218L286.429 172.813L283.444 164.161L274.836 164.261L275.563 165.585L282.85 150.409L275.241 142.532L260.416 154.658L260.933 155.075L269.878 136.915L259.417 126.096Z" fill="#2C332F"/>
<path d="M259.417 126.096L218.204 167.479L232.323 170.538L256.118 146.693L255.726 146.402L246.498 165.156L256.543 169.26L270.2 158.094L269.681 157.679L262.735 172.218L272.26 172.457L282.85 150.409L275.241 142.532L260.416 154.658L260.933 155.075L269.878 136.915L259.417 126.096Z" fill="#2C332F"/>
<path d="M292.943 176.564L317.636 145.552L330.709 148.385L328.799 170.11L346.627 151.832L359.588 154.641L352.061 189.374L339.385 186.627L343.426 167.983L327.617 184.077L314.941 181.33L316.576 161.985L303.174 178.781L292.943 176.564ZM392.49 190.934C392.236 192.11 392.005 193.27 391.796 194.414C391.588 195.559 391.422 196.693 391.298 197.817L379.529 195.266C379.368 194.66 379.264 194.04 379.218 193.414C379.154 192.586 379.175 191.753 379.28 190.929C377.755 192.105 375.962 192.965 373.899 193.511C371.883 194.028 369.188 193.92 365.816 193.189C362.406 192.45 359.849 191.062 358.147 189.028C356.484 187.001 355.94 184.661 356.515 182.007C357.049 179.544 358.159 177.802 359.849 176.779C361.586 175.727 364.025 175.264 367.174 175.391C370.329 175.477 374.274 176.035 379.011 177.062L381.967 177.702L382.103 177.077C382.365 175.865 382.055 174.825 381.171 173.959C380.287 173.093 378.443 172.356 375.64 171.749C372.873 171.149 370.218 170.952 367.673 171.154C365.177 171.326 363.115 171.594 361.489 171.957L363.14 164.338C364.939 164.092 367.307 163.971 370.243 163.974C373.224 163.945 376.534 164.325 380.172 165.114C383.848 165.91 386.881 166.924 389.273 168.157C391.673 169.352 393.364 170.888 394.344 172.767C395.334 174.608 395.529 176.912 394.929 179.679L392.49 190.934ZM400.962 170.513L412.731 173.063L412.365 178.04C414.217 176.458 416.239 175.45 418.438 175.013C420.635 174.575 423.041 174.642 425.656 175.209C428.612 175.849 431.15 176.954 433.27 178.523C435.348 180.039 436.923 182.143 437.792 184.564C438.69 187.018 438.78 189.896 438.065 193.192C437.351 196.488 436.075 199.089 434.233 200.991C432.439 202.864 430.229 204.092 427.604 204.672C424.976 205.255 422.13 205.213 419.06 204.547C416.859 204.085 414.767 203.207 412.895 201.961C411.104 200.702 409.683 199.024 408.63 196.932L406.068 208.756L393.276 205.984L400.963 170.511L400.962 170.513ZM475.129 201.223C475.737 198.418 477.037 196.081 479.03 194.212C481.059 192.351 483.63 191.105 486.743 190.469C489.903 189.805 493.435 189.896 497.338 190.742C501.393 191.62 504.634 193.055 507.058 195.048C509.52 197.05 511.021 199.459 511.562 202.273C512.141 205.097 511.631 208.181 510.033 211.525L487.58 206.66C487.682 208.387 488.42 209.836 489.793 211.007C491.212 212.149 493.475 213.055 496.581 213.728C498.742 214.196 500.791 214.442 502.731 214.463C504.562 214.456 506.391 214.357 508.212 214.166L506.747 220.93C504.951 221.334 503.002 221.546 500.895 221.565C498.826 221.593 496.181 221.259 492.96 220.561C485.872 219.025 480.869 216.573 477.95 213.202C475.075 209.802 474.135 205.81 475.129 201.223ZM514.711 195.159L547.171 202.193L545.594 209.471L535.474 207.278L530.966 228.082L518.176 225.31L522.684 204.506L513.134 202.437L514.711 195.159ZM443.54 179.737L456.33 182.509L453.571 195.242L468.439 185.133L479.468 187.522L465.673 196.793L475.713 216.109L460.25 212.758L452.93 198.198L450.245 210.59L437.455 207.818L443.54 179.737ZM496.016 197.12C494.271 196.742 492.778 196.954 491.533 197.756C490.296 198.519 489.358 199.645 488.718 201.133L499.973 203.572C500.273 202.011 500.13 200.65 499.549 199.491C498.973 198.297 497.796 197.506 496.016 197.12ZM424.992 190.359C425.485 188.084 425.249 186.149 424.285 184.552C423.369 182.926 421.772 181.865 419.499 181.372C417.416 180.921 415.531 181.187 413.852 182.172C412.178 183.12 411.079 184.804 410.553 187.23C410.027 189.656 410.302 191.679 411.38 193.302C412.503 194.894 414.125 195.92 416.247 196.38C418.598 196.89 420.507 196.588 421.977 195.479C423.485 194.378 424.491 192.671 424.992 190.359ZM380.846 182.874L377.947 182.246C375.181 181.647 373.142 181.446 371.83 181.637C370.557 181.838 369.782 182.581 369.502 183.869C369.264 184.968 369.467 185.866 370.108 186.56C370.798 187.226 371.691 187.677 372.792 187.916C374.459 188.277 375.889 188.269 377.08 187.893C378.319 187.487 379.333 186.932 380.119 186.23L380.846 182.874Z" fill="#5AB179"/>
</g>
<g clip-path="url(#clip6_13216_10012)">
<path d="M774.032 250.709C769.842 249.801 765.821 250.238 762.213 251.611L766.372 232.422L757.475 230.494L749.812 265.859C747.486 276.594 754.576 287.213 765.531 289.587C776.486 291.961 787.467 285.334 789.825 274.453C792.183 263.571 785.208 253.13 774.032 250.709ZM727.879 241.323C717.82 240.144 707.932 246.7 705.781 256.626C703.518 267.066 710.797 277.881 721.532 280.207C732.266 282.533 743.353 275.775 745.631 265.261C746.603 260.776 745.861 256.382 743.842 252.557L729.373 224.481L717.903 221.996L727.879 241.323ZM654.645 247.854L650.945 225.499L644.695 224.145L632.146 242.979L628.446 220.624L618.741 218.521L625.134 257.932L631.384 259.287L644.67 239.535L648.588 263.015L654.838 264.369L676.899 231.123L667.267 229.036L654.645 247.854ZM818.131 260.341C807.029 257.936 796.243 264.374 793.933 275.035C791.638 285.622 797.482 296.664 809.172 299.198C816.157 300.711 822.535 298.629 827.79 293.918L822.074 286.906C819.324 290.005 814.981 291.219 811.158 290.391C806.158 289.307 801.981 284.784 802.712 279.631L831.754 285.925L832.328 283.278C834.676 272.086 828.792 262.652 818.131 260.341ZM931.358 284.877C920.256 282.471 909.543 288.925 907.138 300.027C904.875 310.468 910.799 321.142 922.415 323.66C929.4 325.173 935.778 323.091 941.033 318.38L936.03 311.984C933.197 314.757 928.886 315.824 924.18 314.805C919.548 313.801 915.224 309.246 915.956 304.093L944.85 310.355L945.504 307.34C947.83 296.606 942.019 287.187 931.358 284.877ZM959.804 303.511C960.298 301.232 963.842 300.152 967.959 301.045C972.077 301.937 976.205 304.91 978.445 308.782L985.198 303.548C981.008 298.022 976.355 294.627 969.885 293.225C961.797 291.473 952.708 293.275 950.908 301.583C948.693 311.803 957.577 314.498 964.802 316.679C968.856 317.866 972.468 318.956 971.895 321.603C971.274 324.471 966.796 324.886 963.193 324.105C958.488 323.086 954.465 319.982 952.231 315.726L945.206 320.438C948.585 326.867 954.692 330.654 961.163 332.056C969.25 333.808 978.959 331.986 980.823 323.384C982.926 313.679 974.016 310.747 967.175 308.572C962.802 307.086 959.279 305.937 959.804 303.511ZM847.749 276.766L849.533 268.532L840.637 266.604L832.782 302.851L841.679 304.779L845.008 289.412C848.033 281.139 855.766 279.196 863.854 280.949L865.782 272.053L864.9 271.861C858.062 270.38 852.537 271.723 847.749 276.766ZM875.908 282.868L877.693 274.634L868.796 272.706L860.942 308.953L869.838 310.881L873.168 295.514C876.432 286.138 885.47 285.633 892.014 287.051L893.942 278.155L892.986 277.947C886.222 276.482 880.712 277.751 875.908 282.868ZM688.528 271.592L697.424 273.52L709.007 220.068L700.111 218.14L688.528 271.592ZM723.428 271.457C717.325 270.135 713.361 264.272 714.651 258.317C715.942 252.362 721.92 248.576 728.022 249.899C734.051 251.205 738.162 257.1 736.856 263.128C735.549 269.157 729.604 272.796 723.428 271.457ZM767.468 281.001C761.439 279.694 757.386 273.889 758.708 267.787C760.031 261.684 765.814 258.088 772.137 259.458C778.46 260.828 782.277 266.659 780.986 272.614C779.696 278.57 773.571 282.323 767.468 281.001ZM673.161 268.263L682.058 270.19L689.912 233.943L681.016 232.015L673.161 268.263ZM889.837 315.214L898.733 317.142L906.588 280.895L897.691 278.967L889.837 315.214ZM689.178 215.309C685.575 214.529 681.923 216.817 681.126 220.493C680.314 224.242 682.918 227.501 686.373 228.25C690.197 229.078 693.823 226.554 694.54 223.245C695.273 219.863 692.854 216.106 689.178 215.309ZM905.927 262.277C902.324 261.497 898.599 263.768 897.802 267.445C897.005 271.121 899.373 274.405 903.27 275.249C907.166 276.094 910.371 274.094 911.151 270.491C911.932 266.889 909.603 263.074 905.927 262.277ZM918.546 297.111C920.797 293.827 924.405 292.453 929.037 293.457C933.669 294.461 936.058 297.288 936.486 300.998L918.546 297.111ZM805.246 272.56C807.497 269.276 811.104 267.902 815.663 268.89C820.295 269.894 822.831 272.752 823.259 276.463C823.332 276.479 805.246 272.56 805.246 272.56Z" fill="#5AB179"/>
</g>
<defs>
<clipPath id="clip0_13216_10012">
<rect width="376.152" height="56.4981" fill="white" transform="translate(11.9651 -37.374) rotate(12.2265)"/>
</clipPath>
<clipPath id="clip1_13216_10012">
<rect width="258.107" height="56.4981" fill="white" transform="translate(449.702 57.48) rotate(12.2265)"/>
</clipPath>
<clipPath id="clip2_13216_10012">
<rect width="384.187" height="56.4981" fill="white" transform="translate(772.071 127.334) rotate(12.2265)"/>
</clipPath>
<clipPath id="clip3_13216_10012">
<rect width="376.152" height="56.4981" fill="white" transform="translate(431.665 -58) rotate(12.2265)"/>
</clipPath>
<clipPath id="clip4_13216_10012">
<rect width="258.107" height="56.4981" fill="white" transform="translate(869.402 36.8535) rotate(12.2265)"/>
</clipPath>
<clipPath id="clip5_13216_10012">
<rect width="384.187" height="56.4981" fill="white" transform="translate(176.975 104.32) rotate(12.2265)"/>
</clipPath>
<clipPath id="clip6_13216_10012">
<rect width="376.152" height="56.4981" fill="white" transform="translate(622.565 200.875) rotate(12.2265)"/>
</clipPath>
</defs>
</svg>
