<svg width="360" height="209" viewBox="0 0 360 209" fill="none" xmlns="http://www.w3.org/2000/svg">
<g clip-path="url(#clip0_13215_13289)">
<path d="M-76.4086 49.403C-79.347 48.7662 -82.1661 49.0729 -84.6956 50.036L-81.78 36.581L-88.0177 35.2293L-93.3909 60.0257C-95.0218 67.5523 -90.0507 74.9982 -82.3695 76.6627C-74.6883 78.3271 -66.9889 73.6808 -65.3356 66.0511C-63.6823 58.4215 -68.5727 51.101 -76.4086 49.403ZM-108.769 42.8224C-115.822 41.9957 -122.755 46.5923 -124.264 53.5518C-125.85 60.8721 -120.746 68.4547 -113.22 70.0856C-105.693 71.7166 -97.9199 66.9783 -96.3225 59.6064C-95.6411 56.4617 -96.1608 53.3806 -97.5767 50.699L-107.722 31.0136L-115.764 29.271L-108.769 42.8224ZM-160.118 47.4016L-162.712 31.7272L-167.094 30.7776L-175.893 43.9833L-178.487 28.3089L-185.292 26.8343L-180.809 54.468L-176.427 55.4175L-167.112 41.5683L-164.364 58.0315L-159.982 58.981L-144.514 35.6705L-151.268 34.2071L-160.118 47.4016ZM-45.4887 56.157C-53.273 54.4702 -60.8358 58.9843 -62.4556 66.4593C-64.0642 73.8827 -59.9668 81.6251 -51.7701 83.4013C-46.8727 84.4625 -42.4005 83.0028 -38.7162 79.6993L-42.7242 74.7828C-44.6523 76.9557 -47.6974 77.8071 -50.378 77.2262C-53.8836 76.4666 -56.8125 73.2952 -56.2995 69.6823L-35.9365 74.0948L-35.5344 72.2389C-33.888 64.3919 -38.0137 57.7768 -45.4887 56.157ZM33.901 73.3601C26.1166 71.6733 18.6054 76.1986 16.9186 83.9829C15.3324 91.3032 19.4856 98.7878 27.6307 100.553C32.5281 101.614 37.0003 100.154 40.6846 96.8508L37.1766 92.3666C35.1901 94.3109 32.1674 95.0592 28.8681 94.3443C25.6204 93.6405 22.5883 90.4468 23.1014 86.8339L43.3612 91.224L43.8192 89.1104C45.4501 81.5838 41.376 74.9799 33.901 73.3601ZM53.8461 86.4256C54.1924 84.8275 56.6772 84.0706 59.5641 84.6962C62.451 85.3217 65.3456 87.4062 66.9162 90.1214L71.6513 86.4518C68.7129 82.5768 65.4506 80.1967 60.9141 79.2137C55.2434 77.9849 48.8707 79.2486 47.6083 85.0739C46.0556 92.2396 52.2848 94.1292 57.3506 95.6587C60.1928 96.4904 62.7257 97.2552 62.3235 99.111C61.8879 101.122 58.7483 101.413 56.2223 100.865C52.923 100.15 50.1023 97.974 48.5361 94.99L43.6102 98.2944C45.9797 102.802 50.2619 105.457 54.7985 106.44C60.4692 107.669 67.2766 106.391 68.5836 100.36C70.0582 93.5548 63.811 91.4994 59.0141 89.9742C55.9477 88.932 53.4775 88.1268 53.8461 86.4256ZM-24.7221 67.6734L-23.471 61.8996L-29.7087 60.5479L-35.216 85.9629L-28.9782 87.3146L-26.6435 76.5403C-24.5229 70.739 -19.1004 69.3773 -13.4297 70.6061L-12.0781 64.3684L-12.6967 64.2343C-17.491 63.1954 -21.3651 64.137 -24.7221 67.6734ZM-4.9778 71.9518L-3.72667 66.178L-9.96442 64.8264L-15.4716 90.2414L-9.23389 91.593L-6.89919 80.8187C-4.61097 74.2442 1.72649 73.8903 6.31458 74.8846L7.66626 68.6468L6.9961 68.5016C2.25334 67.4739 -1.60964 68.3639 -4.9778 71.9518ZM-136.36 64.0457L-130.123 65.3974L-122.001 27.9193L-128.239 26.5676L-136.36 64.0457ZM-111.89 63.951C-116.169 63.0238 -118.949 58.9133 -118.044 54.7376C-117.139 50.5619 -112.948 47.908 -108.669 48.8351C-104.442 49.7511 -101.559 53.884 -102.475 58.1112C-103.391 62.3384 -107.56 64.8893 -111.89 63.951ZM-81.0109 70.6423C-85.2382 69.7263 -88.0803 65.6562 -87.1531 61.3774C-86.226 57.0986 -82.1713 54.5769 -77.7379 55.5376C-73.3044 56.4983 -70.6281 60.5865 -71.533 64.7622C-72.4378 68.9378 -76.7322 71.5695 -81.0109 70.6423ZM-147.135 61.711L-140.897 63.0627L-135.39 37.6477L-141.628 36.296L-147.135 61.711ZM4.78817 94.6315L11.0259 95.9832L16.5332 70.5682L10.2954 69.2165L4.78817 94.6315ZM-135.905 24.5827C-138.431 24.0353 -140.991 25.6394 -141.55 28.217C-142.12 30.8461 -140.294 33.1308 -137.871 33.6558C-135.19 34.2367 -132.648 32.4668 -132.145 30.147C-131.631 27.7756 -133.327 25.1412 -135.905 24.5827ZM16.0695 57.5143C13.5435 56.967 10.9315 58.5599 10.3729 61.1375C9.81437 63.715 11.4743 66.0177 14.2065 66.6098C16.9388 67.2018 19.1856 65.7997 19.733 63.2737C20.2804 60.7476 18.6471 58.0729 16.0695 57.5143ZM24.9178 81.9382C26.4962 79.6356 29.0257 78.6725 32.2735 79.3762C35.5212 80.08 37.1966 82.0622 37.4964 84.6639L24.9178 81.9382ZM-54.5234 64.7239C-52.945 62.4213 -50.4155 61.4582 -47.2193 62.1508C-43.9715 62.8545 -42.193 64.8591 -41.8932 67.4608C-41.8417 67.4719 -54.5234 64.7239 -54.5234 64.7239Z" fill="#5AB179"/>
</g>
<g clip-path="url(#clip1_13215_13289)">
<path fill-rule="evenodd" clip-rule="evenodd" d="M145.549 85.6823C141.664 84.4018 137.477 84.3562 133.564 85.5518C129.652 86.7473 126.206 89.1252 123.7 92.3588C121.194 95.5923 119.75 99.5227 119.569 103.61C119.387 107.697 120.475 111.74 122.685 115.183C124.894 118.626 128.115 121.301 131.906 122.839C135.697 124.377 139.871 124.703 143.855 123.772C147.839 122.842 151.437 120.7 154.154 117.642C156.871 114.584 158.575 110.759 159.03 106.693C159.541 102.175 158.479 97.6191 156.024 93.7921C153.568 89.9651 149.869 87.1011 145.549 85.6823ZM138.532 115.034C136.331 114.858 134.241 113.996 132.556 112.571C130.87 111.145 129.673 109.227 129.134 107.086C128.595 104.945 128.74 102.689 129.549 100.635C130.358 98.5805 131.791 96.8316 133.645 95.6335C135.5 94.4355 137.683 93.8487 139.888 93.9556C142.093 94.0625 144.209 94.8576 145.939 96.2294C147.669 97.6011 148.926 99.4804 149.533 101.603C150.139 103.726 150.065 105.986 149.322 108.064C148.54 110.251 147.059 112.119 145.109 113.379C143.158 114.639 140.847 115.221 138.532 115.034ZM172.96 92.4235C172.288 92.2797 171.593 92.2873 170.925 92.446C170.256 92.6047 169.632 92.9103 169.097 93.3407C168.561 93.771 168.129 94.3153 167.83 94.9339C167.532 95.5525 167.375 96.2298 167.372 96.9166C167.335 99.1363 169.008 101.021 171.172 101.49L183.736 104.212L158.578 125.85C158.392 126.009 158.254 126.218 158.18 126.451C158.105 126.685 158.098 126.935 158.157 127.172C158.217 127.41 158.342 127.627 158.518 127.797C158.693 127.968 158.913 128.087 159.153 128.139L189.822 134.785C191.985 135.254 194.289 134.232 195.175 132.196C195.455 131.569 195.593 130.888 195.578 130.201C195.562 129.515 195.394 128.84 195.085 128.227C194.776 127.613 194.335 127.077 193.792 126.655C193.25 126.234 192.62 125.939 191.95 125.792L176.642 122.475L201.781 100.854C201.969 100.693 202.108 100.483 202.183 100.247C202.258 100.011 202.266 99.7588 202.205 99.5188C202.145 99.2787 202.019 99.0603 201.841 98.8879C201.663 98.7155 201.441 98.596 201.2 98.5429L172.96 92.4235ZM295.488 119.083C294.42 119.105 293.391 119.49 292.572 120.175C291.753 120.86 291.193 121.805 290.983 122.852L287.725 137.886L267.565 113.221C267.407 113.028 267.198 112.884 266.961 112.804C266.724 112.725 266.47 112.714 266.228 112.773C265.985 112.832 265.764 112.958 265.59 113.137C265.416 113.316 265.296 113.54 265.244 113.784L258.517 144.826C258.274 145.866 258.394 146.958 258.856 147.92C259.318 148.883 260.095 149.659 261.058 150.121C261.686 150.409 262.37 150.552 263.061 150.54C263.752 150.528 264.431 150.362 265.048 150.052C265.666 149.743 266.206 149.299 266.629 148.753C267.052 148.207 267.347 147.572 267.493 146.897L270.779 131.733L290.939 156.398C291.097 156.591 291.307 156.735 291.543 156.815C291.78 156.894 292.034 156.905 292.276 156.846C292.519 156.787 292.74 156.661 292.914 156.482C293.088 156.304 293.208 156.079 293.26 155.835L300.011 124.68C300.158 124.005 300.152 123.306 299.992 122.634C299.833 121.962 299.525 121.334 299.091 120.797C298.657 120.26 298.108 119.827 297.484 119.531C296.86 119.234 296.178 119.081 295.488 119.083ZM230.312 113.4C240.616 115.633 247.135 122.746 246.08 127.617C245.024 132.488 236.145 136.265 225.841 134.032C215.537 131.799 209.018 124.686 210.074 119.815C211.129 114.944 220.008 111.167 230.312 113.4ZM232.269 104.371C217.354 101.139 203.387 107.18 201.072 117.864C198.757 128.548 208.97 139.829 223.885 143.061C238.799 146.293 252.766 140.252 255.081 129.568C257.396 118.884 247.183 107.603 232.269 104.371Z" fill="#5AB179"/>
</g>
<g clip-path="url(#clip2_13215_13289)">
<mask id="mask0_13215_13289" style="mask-type:luminance" maskUnits="userSpaceOnUse" x="341" y="129" width="49" height="49">
<path d="M350.34 129.948L389.056 138.338L380.666 177.053L341.951 168.664L350.34 129.948Z" fill="white"/>
</mask>
<g mask="url(#mask0_13215_13289)">
<path d="M361.309 172.858C372 175.175 382.544 168.386 384.861 157.695C387.178 147.004 380.389 136.46 369.698 134.143C359.007 131.826 348.462 138.615 346.146 149.306C343.829 159.997 350.618 170.542 361.309 172.858Z" fill="#5AB179"/>
<path d="M365.997 166.375L370.488 145.65L368.056 145.123C366.304 144.743 364.894 144.827 363.829 145.376C362.771 145.897 362.112 146.756 361.852 147.952C361.657 148.856 361.648 149.66 361.829 150.367C362.01 151.074 362.349 151.759 362.844 152.423C363.341 153.087 363.984 153.839 364.777 154.678L366.751 156.733L357.946 164.632L352.843 163.527L361.201 156.157L363.643 159.523L361.58 157.49C360.547 156.448 359.589 155.335 358.714 154.157C357.941 153.098 357.411 152.011 357.126 150.892C356.84 149.772 356.843 148.535 357.137 147.18C357.643 144.842 358.89 143.137 360.875 142.064C362.892 140.972 365.535 140.78 368.802 141.488L376.016 143.051L370.739 167.403L365.997 166.375Z" fill="#2C332F"/>
</g>
</g>
<g clip-path="url(#clip3_13215_13289)">
<path d="M217.866 34.9411C214.927 34.3043 212.108 34.611 209.579 35.5741L212.494 22.1191L206.257 20.7674L200.884 45.5638C199.253 53.0904 204.224 60.5363 211.905 62.2008C219.586 63.8652 227.286 59.2188 228.939 51.5892C230.592 43.9595 225.702 36.639 217.866 34.9411ZM185.505 28.3605C178.452 27.5338 171.519 32.1304 170.011 39.0898C168.425 46.4102 173.528 53.9927 181.055 55.6237C188.581 57.2546 196.354 52.5163 197.952 45.1444C198.633 41.9998 198.114 38.9187 196.698 36.2371L186.553 16.5517L178.511 14.8091L185.505 28.3605ZM134.157 32.9397L131.562 17.2652L127.18 16.3157L118.382 29.5214L115.787 13.847L108.983 12.3724L113.465 40.0061L117.847 40.9556L127.163 27.1064L129.91 43.5696L134.292 44.5191L149.76 21.2085L143.007 19.7452L134.157 32.9397ZM248.786 41.6951C241.001 40.0083 233.439 44.5224 231.819 51.9974C230.21 59.4208 234.308 67.1632 242.504 68.9393C247.402 70.0006 251.874 68.5409 255.558 65.2374L251.55 60.3209C249.622 62.4938 246.577 63.3452 243.896 62.7643C240.391 62.0047 237.462 58.8333 237.975 55.2204L258.338 59.6329L258.74 57.777C260.386 49.93 256.261 43.3149 248.786 41.6951ZM328.175 58.8982C320.391 57.2114 312.88 61.7367 311.193 69.521C309.607 76.8413 313.76 84.3259 321.905 86.0909C326.803 87.1521 331.275 85.6924 334.959 82.3889L331.451 77.9047C329.465 79.849 326.442 80.5973 323.143 79.8823C319.895 79.1786 316.863 75.9849 317.376 72.3719L337.636 76.7621L338.094 74.6485C339.725 67.1219 335.65 60.518 328.175 58.8982ZM348.121 71.9637C348.467 70.3656 350.952 69.6087 353.839 70.2343C356.725 70.8598 359.62 72.9443 361.191 75.6594L365.926 71.9899C362.987 68.1148 359.725 65.7348 355.188 64.7517C349.518 63.523 343.145 64.7867 341.883 70.612C340.33 77.7777 346.559 79.6673 351.625 81.1967C354.467 82.0285 357 82.7933 356.598 84.6491C356.162 86.6596 353.023 86.9508 350.497 86.4035C347.197 85.6885 344.377 83.5121 342.81 80.5281L337.885 83.8324C340.254 88.3399 344.536 90.9949 349.073 91.9779C354.744 93.2067 361.551 91.9293 362.858 85.8977C364.333 79.0929 358.085 77.0375 353.289 75.5123C350.222 74.47 347.752 73.6649 348.121 71.9637ZM269.552 53.2115L270.803 47.4377L264.566 46.086L259.058 71.501L265.296 72.8527L267.631 62.0784C269.752 56.2771 275.174 54.9154 280.845 56.1442L282.196 49.9064L281.578 49.7724C276.783 48.7335 272.909 49.6751 269.552 53.2115ZM289.297 57.4899L290.548 51.7161L284.31 50.3645L278.803 75.7795L285.041 77.1311L287.375 66.3568C289.663 59.7823 296.001 59.4284 300.589 60.4226L301.941 54.1849L301.271 54.0397C296.528 53.0119 292.665 53.902 289.297 57.4899ZM157.914 49.5838L164.152 50.9355L172.273 13.4574L166.035 12.1057L157.914 49.5838ZM182.384 49.489C178.105 48.5619 175.326 44.4514 176.231 40.2757C177.135 36.1 181.327 33.446 185.605 34.3732C189.833 35.2892 192.715 39.422 191.799 43.6493C190.883 47.8765 186.714 50.4274 182.384 49.489ZM213.263 56.1804C209.036 55.2644 206.194 51.1943 207.121 46.9155C208.048 42.6367 212.103 40.115 216.537 41.0757C220.97 42.0364 223.646 46.1246 222.741 50.3002C221.837 54.4759 217.542 57.1076 213.263 56.1804ZM147.14 47.2491L153.377 48.6008L158.885 23.1858L152.647 21.8341L147.14 47.2491ZM299.063 80.1696L305.3 81.5213L310.808 56.1063L304.57 54.7546L299.063 80.1696ZM158.369 10.1208C155.843 9.57341 153.283 11.1775 152.724 13.7551C152.155 16.3842 153.98 18.6689 156.403 19.1939C159.084 19.7748 161.626 18.0049 162.129 15.6851C162.643 13.3137 160.947 10.6793 158.369 10.1208ZM310.344 43.0524C307.818 42.5051 305.206 44.098 304.647 46.6755C304.089 49.2531 305.749 51.5558 308.481 52.1479C311.213 52.7399 313.46 51.3378 314.007 48.8117C314.555 46.2857 312.922 43.611 310.344 43.0524ZM319.192 67.4763C320.771 65.1736 323.3 64.2105 326.548 64.9143C329.796 65.6181 331.471 67.6003 331.771 70.2019L319.192 67.4763ZM239.751 50.262C241.329 47.9594 243.859 46.9963 247.055 47.6889C250.303 48.3926 252.081 50.3972 252.381 52.9988C252.433 53.01 239.751 50.262 239.751 50.262Z" fill="#5AB179"/>
</g>
<g clip-path="url(#clip4_13215_13289)">
<path d="M-13.932 165.825C-24.611 163.511 -31.4164 152.985 -29.1026 142.308C-26.7885 131.629 -16.2217 124.796 -5.54272 127.11C5.13498 129.423 11.9268 140.018 9.61276 150.697C7.29899 161.375 -3.25433 168.139 -13.932 165.825Z" fill="#5AB179"/>
<path d="M-9.10819 129.079L-38.0051 158.095L-28.1056 160.24L-11.4216 143.521L-11.6962 143.317L-18.1665 156.467L-11.1238 159.344L-1.54778 151.515L-1.91167 151.224L-6.78229 161.418L9.83114 161.835L7.73812 155.769L1.70236 155.839L2.21198 156.767L7.32129 146.126L1.98677 140.604L-8.40813 149.106L-8.04581 149.398L-1.7738 136.665L-9.10819 129.079Z" fill="#2C332F"/>
<path d="M-9.1082 129.079L-38.0051 158.095L-28.1056 160.24L-11.4216 143.521L-11.6962 143.317L-18.1666 156.467L-11.1238 159.344L-1.54778 151.515L-1.91168 151.224L-6.7823 161.418L-0.103636 161.586L7.32128 146.126L1.98676 140.604L-8.40814 149.106L-8.04581 149.398L-1.7738 136.665L-9.1082 129.079Z" fill="#2C332F"/>
<path d="M14.398 164.465L31.7114 142.721L40.8779 144.707L39.5389 159.94L52.0386 147.125L61.1263 149.094L55.8492 173.447L46.9614 171.521L49.7942 158.448L38.7099 169.733L29.8222 167.807L30.9684 154.243L21.5719 166.019L14.398 164.465ZM84.1963 174.54C84.0176 175.365 83.8562 176.179 83.7094 176.98C83.5637 177.784 83.4469 178.579 83.36 179.366L75.1084 177.578C74.9955 177.153 74.9223 176.719 74.8899 176.28C74.8456 175.699 74.8603 175.115 74.9338 174.537C73.8647 175.362 72.6072 175.965 71.1611 176.347C69.7476 176.71 67.8576 176.634 65.4934 176.122C63.1021 175.604 61.3093 174.63 60.1159 173.204C58.9499 171.783 58.5689 170.142 58.9722 168.282C59.3464 166.555 60.1245 165.333 61.3095 164.616C62.5272 163.878 64.2379 163.553 66.4452 163.643C68.6573 163.703 71.4234 164.094 74.7452 164.814L76.8177 165.263L76.9128 164.825C77.0968 163.975 76.8793 163.246 76.2596 162.639C75.64 162.032 74.3468 161.515 72.3813 161.089C70.4417 160.669 68.5802 160.53 66.7957 160.672C65.0456 160.792 63.5997 160.98 62.4597 161.235L63.6171 155.893C64.8786 155.721 66.5386 155.636 68.5973 155.637C70.6877 155.618 73.008 155.884 75.5593 156.437C78.1365 156.995 80.2631 157.706 81.9403 158.571C83.6233 159.408 84.8086 160.485 85.4959 161.803C86.1903 163.094 86.3266 164.709 85.9063 166.649L84.1963 174.54ZM90.1362 160.222L98.3878 162.01L98.1315 165.5C99.4297 164.391 100.848 163.684 102.389 163.377C103.93 163.071 105.617 163.117 107.451 163.515C109.523 163.964 111.302 164.739 112.789 165.839C114.246 166.902 115.351 168.377 115.96 170.074C116.589 171.795 116.652 173.813 116.151 176.124C115.651 178.435 114.756 180.259 113.464 181.592C112.207 182.906 110.657 183.767 108.816 184.173C106.974 184.582 104.978 184.552 102.826 184.086C101.282 183.762 99.8155 183.146 98.5031 182.272C97.2474 181.389 96.2512 180.213 95.5124 178.746L93.716 187.037L84.7469 185.093L90.1365 160.221L90.1362 160.222ZM142.138 181.755C142.565 179.788 143.476 178.15 144.874 176.839C146.297 175.535 148.099 174.661 150.282 174.215C152.497 173.749 154.974 173.813 157.711 174.406C160.554 175.022 162.826 176.028 164.525 177.425C166.252 178.829 167.305 180.518 167.684 182.491C168.09 184.471 167.732 186.634 166.612 188.978L150.869 185.567C150.94 186.778 151.458 187.794 152.42 188.615C153.415 189.415 155.002 190.051 157.18 190.523C158.695 190.851 160.132 191.024 161.492 191.039C162.776 191.033 164.058 190.964 165.335 190.83L164.307 195.572C163.049 195.856 161.682 196.004 160.205 196.018C158.754 196.037 156.899 195.803 154.641 195.314C149.671 194.237 146.163 192.517 144.116 190.154C142.101 187.77 141.442 184.971 142.138 181.755ZM169.891 177.503L192.651 182.435L191.545 187.538L184.45 186L181.289 200.587L172.321 198.644L175.482 184.057L168.786 182.606L169.891 177.503ZM119.99 166.69L128.958 168.633L127.023 177.561L137.448 170.473L145.181 172.149L135.509 178.649L142.548 192.192L131.706 189.843L126.574 179.634L124.691 188.323L115.723 186.379L119.99 166.69ZM156.784 178.878C155.56 178.613 154.513 178.762 153.64 179.324C152.773 179.859 152.116 180.649 151.667 181.692L159.558 183.402C159.768 182.307 159.668 181.353 159.261 180.541C158.857 179.703 158.032 179.149 156.784 178.878ZM106.985 174.138C107.331 172.543 107.165 171.185 106.489 170.066C105.847 168.926 104.727 168.182 103.134 167.837C101.673 167.52 100.352 167.707 99.1737 168.397C98.0002 169.062 97.2294 170.243 96.8608 171.944C96.4922 173.645 96.6848 175.063 97.4407 176.201C98.2283 177.318 99.3655 178.037 100.853 178.359C102.501 178.716 103.84 178.505 104.871 177.727C105.928 176.955 106.634 175.759 106.985 174.138ZM76.0319 168.89L73.9994 168.449C72.0597 168.029 70.6297 167.888 69.7102 168.022C68.8178 168.163 68.2739 168.684 68.0781 169.587C67.9112 170.358 68.0531 170.987 68.503 171.474C68.9868 171.941 69.6127 172.257 70.3844 172.424C71.5536 172.678 72.556 172.672 73.3914 172.409C74.2597 172.124 74.9709 171.735 75.5221 171.242L76.0319 168.89Z" fill="#5AB179"/>
</g>
<g clip-path="url(#clip5_13215_13289)">
<path d="M351.716 216.452C348.778 215.816 345.958 216.122 343.429 217.085L346.345 203.63L340.107 202.279L334.734 227.075C333.103 234.602 338.074 242.048 345.755 243.712C353.436 245.376 361.136 240.73 362.789 233.1C364.442 225.471 359.552 218.15 351.716 216.452ZM319.355 209.872C312.302 209.045 305.369 213.642 303.861 220.601C302.275 227.921 307.378 235.504 314.905 237.135C322.431 238.766 330.205 234.028 331.802 226.656C332.483 223.511 331.964 220.43 330.548 217.748L320.403 198.063L312.361 196.32L319.355 209.872ZM268.007 214.451L265.412 198.776L261.03 197.827L252.232 211.033L249.637 195.358L242.833 193.884L247.315 221.517L251.697 222.467L261.013 208.618L263.76 225.081L268.142 226.03L283.61 202.72L276.857 201.256L268.007 214.451ZM382.636 223.206C374.851 221.52 367.289 226.034 365.669 233.509C364.06 240.932 368.158 248.674 376.354 250.451C381.252 251.512 385.724 250.052 389.408 246.749L385.4 241.832C383.472 244.005 380.427 244.856 377.746 244.276C374.241 243.516 371.312 240.345 371.825 236.732L392.188 241.144L392.59 239.288C394.237 231.441 390.111 224.826 382.636 223.206ZM462.025 240.409C454.241 238.723 446.73 243.248 445.043 251.032C443.457 258.353 447.61 265.837 455.755 267.602C460.653 268.663 465.125 267.204 468.809 263.9L465.301 259.416C463.315 261.36 460.292 262.109 456.993 261.394C453.745 260.69 450.713 257.496 451.226 253.883L471.486 258.273L471.944 256.16C473.575 248.633 469.5 242.029 462.025 240.409ZM481.971 253.475C482.317 251.877 484.802 251.12 487.689 251.746C490.576 252.371 493.47 254.456 495.041 257.171L499.776 253.501C496.837 249.626 493.575 247.246 489.039 246.263C483.368 245.034 476.995 246.298 475.733 252.123C474.18 259.289 480.409 261.178 485.475 262.708C488.317 263.54 490.85 264.305 490.448 266.16C490.012 268.171 486.873 268.462 484.347 267.915C481.048 267.2 478.227 265.023 476.661 262.039L471.735 265.344C474.104 269.851 478.386 272.506 482.923 273.489C488.594 274.718 495.401 273.44 496.708 267.409C498.183 260.604 491.935 258.549 487.139 257.024C484.072 255.981 481.602 255.176 481.971 253.475ZM403.402 234.723L404.654 228.949L398.416 227.597L392.909 253.012L399.146 254.364L401.481 243.59C403.602 237.788 409.024 236.427 414.695 237.655L416.046 231.418L415.428 231.284C410.634 230.245 406.759 231.186 403.402 234.723ZM423.147 239.001L424.398 233.227L418.16 231.876L412.653 257.291L418.891 258.642L421.225 247.868C423.514 241.294 429.851 240.94 434.439 241.934L435.791 235.696L435.121 235.551C430.378 234.523 426.515 235.413 423.147 239.001ZM291.764 231.095L298.002 232.447L306.123 194.969L299.885 193.617L291.764 231.095ZM316.234 231C311.955 230.073 309.176 225.963 310.081 221.787C310.986 217.611 315.177 214.957 319.456 215.884C323.683 216.8 326.565 220.933 325.649 225.161C324.733 229.388 320.564 231.939 316.234 231ZM347.114 237.692C342.886 236.776 340.044 232.705 340.971 228.427C341.899 224.148 345.953 221.626 350.387 222.587C354.82 223.548 357.496 227.636 356.592 231.811C355.687 235.987 351.392 238.619 347.114 237.692ZM280.99 228.76L287.228 230.112L292.735 204.697L286.497 203.345L280.99 228.76ZM432.913 261.681L439.15 263.032L444.658 237.617L438.42 236.266L432.913 261.681ZM292.22 191.632C289.694 191.085 287.133 192.689 286.575 195.266C286.005 197.895 287.831 200.18 290.253 200.705C292.934 201.286 295.477 199.516 295.979 197.196C296.493 194.825 294.797 192.191 292.22 191.632ZM444.194 224.564C441.668 224.016 439.056 225.609 438.497 228.187C437.939 230.764 439.599 233.067 442.331 233.659C445.063 234.251 447.31 232.849 447.858 230.323C448.405 227.797 446.772 225.122 444.194 224.564ZM453.042 248.987C454.621 246.685 457.15 245.722 460.398 246.426C463.646 247.129 465.321 249.112 465.621 251.713L453.042 248.987ZM373.601 231.773C375.18 229.471 377.709 228.507 380.905 229.2C384.153 229.904 385.931 231.908 386.231 234.51C386.283 234.521 373.601 231.773 373.601 231.773Z" fill="#5AB179"/>
</g>
<defs>
<clipPath id="clip0_13215_13289">
<rect width="263.741" height="39.6139" fill="white" transform="translate(-182.611 14.4619) rotate(12.2265)"/>
</clipPath>
<clipPath id="clip1_13215_13289">
<rect width="180.973" height="39.6139" fill="white" transform="translate(124.31 80.9692) rotate(12.2265)"/>
</clipPath>
<clipPath id="clip2_13215_13289">
<rect width="269.374" height="39.6139" fill="white" transform="translate(350.34 129.948) rotate(12.2265)"/>
</clipPath>
<clipPath id="clip3_13215_13289">
<rect width="263.741" height="39.6139" fill="white" transform="translate(111.664) rotate(12.2265)"/>
</clipPath>
<clipPath id="clip4_13215_13289">
<rect width="269.374" height="39.6139" fill="white" transform="translate(-66.9131 113.811) rotate(12.2265)"/>
</clipPath>
<clipPath id="clip5_13215_13289">
<rect width="263.741" height="39.6139" fill="white" transform="translate(245.514 181.511) rotate(12.2265)"/>
</clipPath>
</defs>
</svg>
