<svg width="32" height="32" viewBox="0 0 32 32" fill="none" xmlns="http://www.w3.org/2000/svg">
<rect width="32" height="32" rx="16" fill="#25D366"/>
<path d="M19.269 16.819C19.2439 16.806 18.3061 16.3051 18.1395 16.2401C18.0715 16.2136 17.9986 16.1877 17.9211 16.1877C17.7944 16.1877 17.6881 16.2562 17.6052 16.3906C17.5115 16.5416 17.2279 16.9011 17.1403 17.0085C17.1289 17.0227 17.1132 17.0396 17.1039 17.0396C17.0955 17.0396 16.9504 16.9748 16.9064 16.9541C15.9004 16.4802 15.1368 15.3406 15.0321 15.1484C15.0172 15.1208 15.0165 15.1082 15.0164 15.1082C15.0201 15.0936 15.0539 15.0568 15.0714 15.0378C15.1225 14.983 15.1778 14.9108 15.2313 14.8409C15.2567 14.8078 15.2821 14.7746 15.307 14.7434C15.3847 14.6453 15.4193 14.5692 15.4594 14.4811L15.4804 14.4353C15.5783 14.2244 15.4947 14.0464 15.4676 13.9889C15.4455 13.9408 15.0495 12.9044 15.0074 12.7955C14.9061 12.5327 14.7724 12.4104 14.5865 12.4104C14.5692 12.4104 14.5865 12.4104 14.5141 12.4137C14.4261 12.4177 13.9464 12.4862 13.7343 12.6312C13.5094 12.785 13.1289 13.2752 13.1289 14.1372C13.1289 14.913 13.5829 15.6456 13.7778 15.9242C13.7827 15.9312 13.7916 15.9455 13.8045 15.9659C14.5509 17.1482 15.4815 18.0244 16.4249 18.4331C17.3331 18.8265 17.7631 18.872 18.0076 18.872H18.0076C18.1104 18.872 18.1926 18.8632 18.2652 18.8555L18.3112 18.8507C18.6249 18.8205 19.3144 18.4331 19.4712 17.9605C19.5948 17.5882 19.6274 17.1814 19.5452 17.0338C19.4889 16.9335 19.3918 16.883 19.269 16.819Z" fill="white"/>
<path d="M16.1134 9.53857C12.6134 9.53857 9.76594 12.3646 9.76594 15.8383C9.76594 16.9618 10.0666 18.0616 10.6362 19.0241L9.54599 22.24C9.52569 22.2999 9.54079 22.3662 9.58514 22.4114C9.61716 22.4441 9.66058 22.4617 9.70493 22.4617C9.72193 22.4617 9.73904 22.4591 9.75574 22.4538L13.109 21.3882C14.0267 21.8785 15.0638 22.1373 16.1134 22.1373C19.6131 22.1374 22.4602 19.3116 22.4602 15.8383C22.4602 12.3646 19.6131 9.53857 16.1134 9.53857ZM16.1134 20.8251C15.1257 20.8251 14.1691 20.5399 13.3468 20.0003C13.3192 19.9821 13.2871 19.9728 13.2548 19.9728C13.2377 19.9728 13.2206 19.9754 13.2039 19.9807L11.5241 20.5147L12.0664 18.9148C12.0839 18.8631 12.0752 18.806 12.0428 18.7618C11.4167 17.9062 11.0857 16.8953 11.0857 15.8383C11.0857 13.0882 13.3411 10.8509 16.1133 10.8509C18.8853 10.8509 21.1404 13.0882 21.1404 15.8383C21.1405 18.588 18.8853 20.8251 16.1134 20.8251Z" fill="white"/>
</svg>
