<svg width="157" height="32" viewBox="0 0 157 32" fill="none" xmlns="http://www.w3.org/2000/svg">
<g clip-path="url(#clip0_13142_3288)">
<path d="M14.7591 29.5385C22.9103 29.5385 29.5182 22.926 29.5182 14.7692C29.5182 6.61241 22.9103 0 14.7591 0C6.60788 0 0 6.61241 0 14.7692C0 22.926 6.60788 29.5385 14.7591 29.5385Z" fill="#FC3F1D"/>
<path d="M16.7269 8.36921H15.374C12.8526 8.36921 11.5612 9.66152 11.5612 11.5077C11.5612 13.6 12.4837 14.5846 14.3286 15.8769L15.866 16.9231L11.4382 23.5692H8.11743L12.1147 17.6615C9.83933 16 8.54791 14.4 8.54791 11.7538C8.54791 8.36921 10.8848 6.09229 15.374 6.09229H19.8017V23.6307H16.7269V8.36921Z" fill="white"/>
<path d="M39.6652 30.4001V25.7847H50.796V30.4001H54.4243V22.7693H52.3334V3.56934H39.4192L39.1117 12.7386C38.9272 17.9693 38.5582 21.0463 37.5128 22.7693H36.0984V30.4001H39.6652ZM42.494 13.2309L42.74 6.58472H48.5206V22.7693H41.1411C41.8175 21.2309 42.3095 18.4616 42.494 13.2309ZM62.6648 9.35395C58.483 9.35395 55.5927 12.3078 55.5927 17.7232C55.5927 23.077 58.483 26.0924 62.6648 26.0924C66.8465 26.0924 69.7983 23.1386 69.7983 17.7232C69.7983 12.3693 66.8465 9.35395 62.6648 9.35395ZM62.6648 23.077C60.5739 23.077 59.5285 21.4155 59.5285 17.7232C59.5285 13.9693 60.5739 12.3693 62.6648 12.3693C64.7557 12.3693 65.8626 13.9693 65.8626 17.7232C65.8626 21.477 64.8172 23.077 62.6648 23.077ZM79.2688 26.0924C81.0522 26.0924 82.2821 25.7847 83.2045 25.1078V22.0309C82.2206 22.7078 81.1137 23.1386 79.5148 23.1386C76.8089 23.1386 75.702 21.0463 75.702 17.7232C75.702 14.2155 77.0549 12.4309 79.5763 12.4309C81.0522 12.4309 82.4666 12.9232 83.266 13.4155V10.2155C82.4666 9.78472 81.0522 9.47703 79.1458 9.47703C74.2876 9.47703 71.7662 12.9847 71.7662 17.8463C71.7047 23.1386 74.1646 26.0924 79.2688 26.0924ZM97.5332 12.677V9.66164H84.8034V12.677H89.2927V25.7847H93.1054V12.677H97.5332ZM110.816 14.8309C110.816 10.9539 108.848 9.47703 104.79 9.47703C102.268 9.47703 100.3 10.277 99.1321 10.9539V14.1539C100.178 13.4155 102.391 12.5539 104.359 12.5539C106.204 12.5539 107.004 13.1693 107.004 14.8924V15.8155H106.389C100.546 15.8155 97.9636 17.7232 97.9636 20.9847C97.9636 24.2463 99.9315 26.0924 102.883 26.0924C105.097 26.0924 106.081 25.3539 106.819 24.6155H107.004C107.065 25.0463 107.188 25.6001 107.311 25.9078H111.001C110.878 24.6155 110.816 23.2616 110.816 21.9693V14.8309ZM107.065 21.9693C106.573 22.6463 105.712 23.2616 104.359 23.2616C102.76 23.2616 101.961 22.277 101.961 20.8616C101.961 18.9539 103.252 18.277 106.512 18.277H107.065V21.9693ZM120.225 25.7847C123.977 25.7847 126.252 24.1847 126.252 21.1078C126.252 19.0155 124.961 17.7847 122.808 17.4155C124.53 16.9232 125.637 15.6924 125.637 13.7847C125.637 11.0155 123.792 9.66164 120.287 9.66164H113.891V25.7847H120.225ZM119.733 12.5539C121.086 12.5539 121.886 13.1078 121.886 14.3386C121.886 15.4463 121.086 16.1232 119.61 16.1232H117.704V12.5539H119.733ZM119.856 18.9539C121.455 18.9539 122.316 19.5078 122.316 20.8616C122.316 22.3386 121.332 22.8924 119.856 22.8924H117.765V18.9539H119.856ZM138.244 25.7847H142.548L136.46 17.1078L141.81 9.66164H137.998L132.648 17.1078V9.66164H128.835V25.7847H132.648V17.8463L138.244 25.7847ZM155.524 14.8309C155.524 10.9539 153.556 9.47703 149.498 9.47703C146.976 9.47703 145.008 10.277 143.84 10.9539V14.1539C144.885 13.4155 147.099 12.5539 149.067 12.5539C150.912 12.5539 151.711 13.1693 151.711 14.8924V15.8155H151.096C145.254 15.8155 142.671 17.7232 142.671 20.9847C142.671 24.2463 144.639 26.0924 147.591 26.0924C149.805 26.0924 150.789 25.3539 151.527 24.6155H151.711C151.773 25.0463 151.896 25.6001 152.019 25.9078H155.709C155.586 24.6155 155.524 23.2616 155.524 21.9693V14.8309ZM151.711 21.9693C151.219 22.6463 150.358 23.2616 149.006 23.2616C147.407 23.2616 146.607 22.277 146.607 20.8616C146.607 18.9539 147.899 18.277 151.158 18.277H151.711V21.9693Z" fill="black"/>
</g>
<defs>
<clipPath id="clip0_13142_3288">
<rect width="157" height="32" fill="white"/>
</clipPath>
</defs>
</svg>
