<svg width="146" height="32" viewBox="0 0 146 32" fill="none" xmlns="http://www.w3.org/2000/svg">
<g clip-path="url(#clip0_13142_3286)">
<path fill-rule="evenodd" clip-rule="evenodd" d="M17.5512 0.0875398C14.269 -0.258655 10.9601 0.421571 8.07961 2.03472C5.19908 3.64787 2.88823 6.11475 1.46471 9.09629C0.0411803 12.0778 -0.425147 15.4277 0.129823 18.6853C0.684792 21.943 2.23382 24.9486 4.56397 27.289C6.89413 29.6294 9.89104 31.1898 13.1428 31.7555C16.3945 32.3213 19.7414 31.8647 22.7235 30.4486C25.7055 29.0324 28.1764 26.7262 29.7963 23.847C31.4163 20.9677 32.1059 17.6567 31.7703 14.3691C31.401 10.7147 29.7854 7.29936 27.1955 4.69811C24.6057 2.09686 21.1997 0.468615 17.5512 0.0875398ZM17.0336 24.4607C15.2683 24.6979 13.4731 24.3752 11.9004 23.538C10.3277 22.7008 9.05658 21.3912 8.2656 19.7933C7.47461 18.1953 7.20357 16.3894 7.49057 14.6293C7.77756 12.8691 8.60817 11.2433 9.86564 9.98025C11.1231 8.7172 12.7442 7.88043 14.5012 7.58756C16.2581 7.29469 18.0626 7.56043 19.6609 8.34743C21.2592 9.13444 22.5711 10.4031 23.4121 11.9752C24.2531 13.5473 24.581 15.3438 24.3497 17.1121C24.107 18.9721 23.2587 20.7001 21.9361 22.0286C20.6135 23.357 18.8904 24.2119 17.0336 24.4607ZM40.3148 0.720363C39.7607 0.721691 39.2139 0.846688 38.7142 1.08626C38.2144 1.32583 37.7743 1.67395 37.4258 2.10528C37.0773 2.53661 36.8293 3.04031 36.6997 3.57972C36.5701 4.11913 36.5622 4.68069 36.6767 5.22353C37.0272 6.98214 38.6677 8.18375 40.4548 8.18375H50.8257L34.6862 29.5698C34.5669 29.7277 34.4938 29.9158 34.4752 30.1129C34.4566 30.3101 34.4931 30.5085 34.5808 30.686C34.6685 30.8635 34.8039 31.013 34.9717 31.1178C35.1395 31.2225 35.3331 31.2785 35.5309 31.2792H60.8472C62.6331 31.2792 64.2748 30.0779 64.6254 28.319C64.7398 27.7763 64.732 27.2148 64.6026 26.6754C64.4731 26.1361 64.2252 25.6324 63.8769 25.201C63.5285 24.7697 63.0886 24.4215 62.589 24.1817C62.0894 23.942 61.5427 23.8168 60.9887 23.8152H48.3526L64.4797 2.44575C64.6002 2.28633 64.674 2.09644 64.6927 1.89738C64.7115 1.69831 64.6745 1.49795 64.5859 1.31878C64.4972 1.1396 64.3605 0.988697 64.191 0.882996C64.0215 0.777294 63.8259 0.720977 63.6262 0.720363H40.3148ZM141.477 0.806451C140.639 1.00601 139.894 1.48601 139.365 2.16708C138.837 2.84815 138.556 3.68951 138.569 4.55204V16.9783L118.46 0.955066C118.303 0.829725 118.113 0.751506 117.913 0.729406C117.713 0.707306 117.51 0.742223 117.329 0.830141C117.148 0.918059 116.995 1.05541 116.888 1.22638C116.782 1.39736 116.725 1.59501 116.726 1.79662V27.4542C116.712 28.3167 116.993 29.1581 117.522 29.8392C118.051 30.5203 118.796 31.0003 119.634 31.1998C120.178 31.3197 120.742 31.3157 121.285 31.1882C121.827 31.0606 122.334 30.8128 122.768 30.4628C123.203 30.1129 123.553 29.6699 123.793 29.1664C124.033 28.6629 124.158 28.1119 124.157 27.5539V15.02L144.266 31.0436C144.424 31.1689 144.614 31.247 144.814 31.2691C145.014 31.2912 145.216 31.2563 145.397 31.1684C145.578 31.0805 145.731 30.9432 145.837 30.7724C145.944 30.6015 146 30.4039 146 30.2024V4.45115C146.001 3.89328 145.876 3.34238 145.636 2.83909C145.395 2.33579 145.045 1.89293 144.611 1.54315C144.177 1.19337 143.67 0.945596 143.128 0.818094C142.585 0.690591 142.021 0.686612 141.477 0.806451ZM89.1185 7.46937C97.6241 7.46937 103.979 11.9701 103.979 15.996C103.979 20.0219 97.6241 24.5227 89.1185 24.5227C80.6128 24.5227 74.2575 20.0219 74.2575 15.996C74.2575 11.9701 80.6128 7.46937 89.1185 7.46937ZM89.1185 0.00628472C76.8069 0.00628472 66.8267 7.16519 66.8267 15.996C66.8267 24.8268 76.8069 31.9857 89.1185 31.9857C101.43 31.9857 111.41 24.8268 111.41 15.996C111.41 7.16519 101.43 0.00628472 89.1185 0.00628472Z" fill="#0069FF"/>
</g>
<defs>
<clipPath id="clip0_13142_3286">
<rect width="146" height="32" fill="white"/>
</clipPath>
</defs>
</svg>
