<svg width="113" height="32" viewBox="0 0 113 32" fill="none" xmlns="http://www.w3.org/2000/svg">
<path fill-rule="evenodd" clip-rule="evenodd" d="M17.7058 23.7816H12.8331C5.23183 23.7816 10.7542 7.6125 17.1536 7.6125H24.8524C26.0867 7.6125 28.2632 7.84027 29.3352 4.7821L30.9919 0.0322266H20.4345C14.7173 0.0322266 10.2669 2.0493 7.05095 5.43277C1.49614 11.2237 -0.387946 20.268 0.943912 24.5949C2.2108 28.5965 5.65413 31.2317 11.0465 31.2968L15.237 31.3293H20.402L21.6689 27.5229C22.6109 24.8227 20.4995 23.7816 17.7058 23.7816ZM77.0221 17.0797L78.6136 11.9069H61.6245C58.7984 11.9069 57.5315 12.6877 57.0443 14.3143L55.4525 19.4872H72.4418C75.2679 19.4872 76.5348 18.7064 77.0221 17.0797ZM52.9188 26.1891L51.327 31.3618H68.3163C71.11 31.3618 72.4093 30.581 72.8966 28.9544L74.4884 23.7816H57.4991C54.7054 23.7816 53.4385 24.5624 52.9188 26.1891ZM80.9851 5.23757L82.5772 0.0647595H65.5876C62.7615 0.0647595 61.4946 0.845559 61.0074 2.47223L59.4156 7.64504H76.4049C79.1989 7.64504 80.4653 6.86424 80.9851 5.23757ZM55.3226 6.27864C54.6079 1.4637 52.0417 0.0647595 45.8047 0.0647595H34.4352L27.8084 19.4872H31.9989C34.5002 19.4872 35.7671 19.5197 37.0989 15.941L39.8601 7.6125H44.083C47.6888 7.6125 46.8767 12.1347 45.0576 16.5266C43.4334 20.3981 40.6072 23.8141 37.1963 23.8141H30.1473C27.3211 23.8141 26.0218 24.5949 25.502 26.2216L23.7479 31.3944H28.9129L33.9804 31.3618C38.4633 31.3293 42.134 31.004 46.4219 27.1325C50.9697 23.0008 56.2322 12.3949 55.3226 6.27864ZM112.43 0.0322266H102.588L93.3294 9.88983C92.257 11.0285 91.1527 12.1671 90.0804 13.5011H89.983L94.5957 0.0322266H86.5727L75.7552 31.3618H83.7789L87.2219 21.5043L90.7951 18.4786L93.6216 27.3928C94.4983 30.1581 95.4086 31.3618 97.3576 31.3618H103.497L97.1947 13.8589L112.43 0.0322266Z" fill="#00B33C"/>
</svg>
