<svg width="231" height="32" viewBox="0 0 231 32" fill="none" xmlns="http://www.w3.org/2000/svg">
<g clip-path="url(#clip0_13142_3271)">
<path d="M18.9869 0.683105V31.4946H13.859V5.11022H5.13773V31.4946H0V0.683105H18.9869Z" fill="#1937FF"/>
<path d="M25.4611 30.2761C23.9209 28.8626 22.8035 27.0487 22.2339 25.0369C21.3994 22.2194 21.012 19.2885 21.0856 16.351C21.0144 13.3387 21.4016 10.3331 22.2339 7.43732C22.7991 5.36656 23.9143 3.48761 25.4611 2C26.8168 0.839437 28.5423 0.20166 30.3266 0.20166C32.1108 0.20166 33.8364 0.839437 35.1921 2C36.737 3.46991 37.8468 5.33762 38.3995 7.39771C39.2263 10.2946 39.6134 13.2994 39.5478 16.3113C39.6223 19.2652 39.2348 22.2126 38.3995 25.0467C37.8455 27.0579 36.7335 28.8711 35.1921 30.2761C33.814 31.3963 32.0924 32.0079 30.3167 32.0079C28.541 32.0079 26.8194 31.3963 25.4413 30.2761H25.4611ZM26.7282 22.4914C26.9302 23.8118 27.424 25.0706 28.1735 26.1758C28.4089 26.5343 28.727 26.8311 29.1007 27.0414C29.4745 27.2515 29.8931 27.3691 30.3216 27.3842C31.5887 27.3842 32.5886 26.4631 33.2915 24.601C34.1599 21.9409 34.5486 19.1473 34.4397 16.351C34.4707 14.2076 34.3051 12.066 33.9448 9.95295C33.7259 8.57858 33.22 7.26586 32.4599 6.10028C32.233 5.72319 31.9161 5.40823 31.5378 5.18357C31.1596 4.95888 30.7315 4.83148 30.2919 4.81275C29.8603 4.83689 29.4412 4.96699 29.0718 5.19153C28.7024 5.41608 28.3939 5.72818 28.1735 6.10028C27.4235 7.27799 26.9311 8.60103 26.7282 9.98272C26.3515 12.0905 26.1792 14.2298 26.2135 16.3708C26.18 18.4231 26.3526 20.4737 26.7282 22.4914Z" fill="#1937FF"/>
<path d="M53.6347 0.683105V12.4987H50.9224C49.9331 12.5402 48.9475 12.3538 48.0416 11.9539C47.3255 11.5771 46.7777 10.944 46.5072 10.1811C46.1427 9.1247 45.9782 8.00965 46.0221 6.89295V0.683105H40.8943V6.89295C40.74 9.58008 41.5393 12.2355 43.1513 14.3903C44.656 16.206 46.9031 17.1139 49.8927 17.1139H53.6347V31.4946H58.7725V0.683105H53.6347Z" fill="#1937FF"/>
<path d="M78.0946 5.11022H72.056V31.4946H66.9478V5.11022H60.9192V0.683105H78.0946V5.11022Z" fill="#1937FF"/>
<path d="M85.3944 0.682907H89.5028C91.1908 0.616427 92.862 1.05058 94.304 1.93083C95.5736 2.7849 96.5589 3.99883 97.1355 5.41705C97.8454 7.17413 98.2923 9.02629 98.4611 10.9138L100.857 31.4945H95.73L94.0561 17.1138H85.3944V31.4945H80.2668V0.682907H85.3944ZM85.3944 12.6866H93.5515L93.3143 10.9138C93.2236 9.77651 92.9909 8.65524 92.6213 7.57613C92.3592 6.85113 91.8519 6.24117 91.1855 5.85283C90.3219 5.44275 89.3695 5.25549 88.4138 5.3081H85.3944V12.6866Z" fill="#1937FF"/>
<path d="M122.118 0.683279C123.829 0.642237 125.517 1.08507 126.989 1.9609C128.432 2.87945 129.555 4.22161 130.206 5.80368C131.028 7.81625 131.42 9.97891 131.354 12.1522C131.402 14.2146 131.035 16.2658 130.275 18.1837C129.708 19.6463 128.802 20.9531 127.632 21.9968C126.821 22.7562 125.771 23.2081 124.662 23.2744C124.091 23.3112 123.518 23.221 122.987 23.0104C122.454 22.7996 121.975 22.4738 121.584 22.0562V31.4948H116.456V0.683279H122.118ZM121.89 16.6783C122.02 17.2282 122.282 17.738 122.653 18.164C122.775 18.3106 122.925 18.4302 123.096 18.5155C123.266 18.6008 123.453 18.6497 123.643 18.6592C124.091 18.6341 124.512 18.4394 124.821 18.1145C125.294 17.6115 125.634 16.9989 125.81 16.3317C126.096 15.307 126.226 14.2454 126.196 13.1822C126.196 10.3034 125.847 8.26975 125.148 7.0813C124.852 6.53333 124.41 6.07774 123.873 5.76488C123.335 5.45202 122.721 5.29407 122.099 5.30848H121.584V14.2221C121.574 15.051 121.678 15.8772 121.89 16.6783Z" fill="#1937FF"/>
<path d="M137.066 30.2769C135.523 28.8662 134.404 27.0512 133.839 25.0377C133 22.2209 132.609 19.2899 132.68 16.3518C132.611 13.339 133.001 10.3332 133.839 7.43813C134.399 5.3652 135.515 3.48496 137.066 2.0008C138.4 0.814081 140.131 0.170934 141.916 0.198264C143.709 0.168442 145.448 0.807487 146.797 1.99089C148.347 3.47036 149.46 5.34806 150.014 7.41831C150.837 10.3158 151.221 13.3206 151.152 16.332C151.223 19.2712 150.842 22.204 150.024 25.0278C149.466 27.0372 148.355 28.8493 146.817 30.2571C145.431 31.4155 143.672 32.0314 141.867 31.9903C140.113 32.0082 138.412 31.4008 137.066 30.2769ZM138.323 22.4923C138.534 23.8102 139.027 25.0669 139.768 26.1766C140.004 26.5345 140.322 26.8309 140.695 27.0411C141.07 27.2512 141.489 27.3691 141.916 27.3849C143.193 27.3849 144.183 26.4638 144.886 24.6019C145.738 21.9386 146.109 19.1452 145.985 16.3518C146.018 14.2079 145.849 12.0658 145.48 9.95371C145.288 8.58798 144.816 7.27646 144.094 6.10108C143.882 5.71261 143.569 5.38844 143.188 5.16261C142.808 4.93678 142.373 4.81761 141.931 4.81761C141.489 4.81761 141.054 4.93678 140.673 5.16261C140.294 5.38844 139.98 5.71261 139.768 6.10108C139.026 7.28243 138.534 8.60391 138.323 9.9834C137.955 12.0924 137.785 14.231 137.817 16.3716C137.786 18.4234 137.956 20.4734 138.323 22.4923Z" fill="#1937FF"/>
<path d="M154.707 7.6554C155.969 5.34979 157.941 3.51261 160.329 2.41615C163.117 1.19751 166.138 0.605859 169.179 0.682941V5.30814C165.535 5.30814 162.744 6.23252 160.804 8.08124C158.824 9.92345 157.894 12.6867 157.894 16.3511C157.894 20.0156 158.883 22.5214 160.794 24.2744C162.705 26.0275 165.516 26.899 169.179 26.899V31.5242C163.941 31.5242 159.883 30.2565 157.033 27.7211C154.182 25.1856 152.756 21.4122 152.756 16.3809C152.647 13.3532 153.319 10.3485 154.707 7.6554Z" fill="#1937FF"/>
<path d="M171.98 7.6554C173.243 5.34979 175.214 3.51261 177.603 2.41615C180.391 1.19751 183.411 0.605859 186.453 0.682941V5.30814C182.81 5.30814 180.018 6.23252 178.078 8.08124C176.098 9.92345 175.167 12.6867 175.167 16.3511C175.167 20.0156 176.157 22.5214 178.068 24.2744C179.978 26.0275 182.79 26.899 186.453 26.899V31.5242C181.217 31.5242 177.157 30.2565 174.306 27.7211C171.455 25.1856 170.06 21.3825 170.06 16.3511C169.948 13.3361 170.608 10.3424 171.98 7.6554Z" fill="#1937FF"/>
<path d="M193.995 0.682963V11.6863L202.726 4.32765L207.835 0.0292969V31.5242H202.726V10.5276L194.005 17.8863V31.4945H188.868V0.682963H193.995Z" fill="#1937FF"/>
<path d="M215.39 0.682963V11.6863L224.121 4.32765L229.229 0.0292969V31.5242H224.101V10.5276L215.369 17.8863V31.4945H210.241V0.682963H215.39Z" fill="#1937FF"/>
</g>
<defs>
<clipPath id="clip0_13142_3271">
<rect width="231" height="32" fill="white"/>
</clipPath>
</defs>
</svg>
