<svg width="218" height="32" viewBox="0 0 218 32" fill="none" xmlns="http://www.w3.org/2000/svg">
<g clip-path="url(#clip0_13142_3292)">
<mask id="mask0_13142_3292" style="mask-type:luminance" maskUnits="userSpaceOnUse" x="0" y="0" width="33" height="32">
<path d="M0 0H32.0588V32H0V0Z" fill="white"/>
</mask>
<g mask="url(#mask0_13142_3292)">
<path d="M16.0294 32C24.8822 32 32.0588 24.8366 32.0588 16C32.0588 7.16344 24.8822 0 16.0294 0C7.17661 0 0 7.16344 0 16C0 24.8366 7.17661 32 16.0294 32Z" fill="#FF5226"/>
<path d="M18.6261 26.0802V8.94948H16.6128C15.1616 8.94948 14.0609 9.25668 13.3129 9.87215C12.5648 10.4652 12.1908 11.2556 12.1908 12.2444C12.1908 12.9911 12.3222 13.6279 12.5862 14.1548C12.8501 14.6818 13.2359 15.165 13.7414 15.6044C14.2479 16.0439 14.8859 16.5271 15.6564 17.054L17.5703 18.3383L11.96 26.0812H7.73462L13.082 18.8332L15.5901 21.0732L13.6099 19.821C12.6142 19.1754 11.6657 18.46 10.7717 17.6802C9.97874 16.9762 9.37389 16.2082 8.95606 15.374C8.53823 14.5388 8.32878 13.5617 8.32878 12.4418C8.32878 10.5089 9.02231 8.94948 10.4083 7.76335C11.8168 6.55588 13.8739 5.95215 16.5796 5.95215H22.5533V26.0802H18.6261Z" fill="white"/>
</g>
<path d="M50.8185 32C41.9756 32 34.7891 24.8544 34.7891 16.0288C34.7891 7.20213 41.9756 0 50.8185 0C59.6603 0 66.8479 7.20213 66.8479 16.0288C66.8479 24.8544 59.6603 32 50.8185 32Z" fill="#FF5226"/>
<path d="M48.3363 2.16553L30.4539 30.0162H38.6513L48.9817 13.9629L48.7295 13.8487L45.8656 25.3367L51.929 26.4034L58.1612 18.5847L57.8235 18.4173L55.7184 27.2983L68.9298 24.7853L66.2347 20.3543L61.4729 21.4423L62.035 22.0877L64.2524 12.813L59.0867 9.36553L52.3223 17.8562L52.6589 18.0247L55.4373 6.89939L48.3363 2.16553Z" fill="#FFDD00"/>
<path d="M48.3363 2.16553L30.4539 30.0162H38.6513L48.9817 13.9629L48.7295 13.8487L45.8656 25.3367L51.929 26.4034L58.1612 18.5847L57.8235 18.4173L55.7184 27.2983L61.0294 26.2882L64.2524 12.813L59.0867 9.36553L52.3223 17.8562L52.6589 18.0247L55.4373 6.89939L48.3363 2.16553Z" fill="#FFDD00"/>
<path d="M72.9925 26.0802L82.9596 5.95224H90.5501L92.1017 18.2072L99.7916 5.95117H107.317V26.0802H99.9572V15.2749L93.1244 26.0802H85.7648L84.3467 15.1757L78.933 26.0802H72.9925ZM129.925 22.0941C129.925 22.7757 129.936 23.4456 129.958 24.1037C129.98 24.7629 130.024 25.4104 130.09 26.0472H123.258C123.095 25.7309 122.963 25.4002 122.862 25.0594C122.728 24.6084 122.639 24.1449 122.598 23.676C121.894 24.5101 121.003 25.2013 119.925 25.7506C118.869 26.2786 117.361 26.5421 115.403 26.5421C113.423 26.5421 111.838 26.0802 110.65 25.1586C109.484 24.236 108.902 23.0061 108.902 21.468C108.902 20.0408 109.308 18.9432 110.122 18.1741C110.959 17.3837 112.256 16.8344 114.017 16.5272C115.777 16.1965 118.032 16.0322 120.783 16.0322H122.499V15.6696C122.499 14.9677 122.202 14.429 121.608 14.0557C121.013 13.6824 119.902 13.4957 118.275 13.4957C116.668 13.4957 115.172 13.7048 113.785 14.1218C112.422 14.5165 111.31 14.9122 110.452 15.308V10.893C111.42 10.541 112.719 10.1901 114.347 9.83917C115.997 9.46584 117.878 9.27917 119.991 9.27917C122.125 9.27917 123.929 9.47651 125.403 9.87224C126.878 10.2456 128 10.893 128.77 11.8157C129.54 12.716 129.925 13.9682 129.925 15.5714V22.0941ZM132.169 9.77411H139.002L139.397 12.573C140.234 11.4754 141.234 10.6744 142.401 10.1688C143.567 9.66317 144.909 9.41144 146.428 9.41144C148.144 9.41144 149.684 9.71864 151.048 10.333C152.383 10.9227 153.509 11.8985 154.282 13.1341C155.075 14.3853 155.47 15.9672 155.47 17.8776C155.47 19.788 155.075 21.3805 154.282 22.6541C153.513 23.9064 152.434 24.8514 151.048 25.4872C149.661 26.125 148.077 26.4429 146.295 26.4429C145.019 26.451 143.753 26.2161 142.566 25.7506C141.421 25.2685 140.431 24.5101 139.596 23.4786V30.3309H132.169V9.77304V9.77411ZM176.989 17.8776C176.989 16.252 177.429 14.8024 178.31 13.5288C179.212 12.2552 180.488 11.2568 182.138 10.5314C183.81 9.78477 185.78 9.41144 188.046 9.41144C190.4 9.41144 192.37 9.81677 193.954 10.6296C195.56 11.4424 196.682 12.5954 197.32 14.0888C197.98 15.5821 198.068 17.3506 197.584 19.3933H184.548C184.812 20.3373 185.395 21.0509 186.297 21.5341C187.221 21.996 188.585 22.2264 190.389 22.2264C191.643 22.2264 192.809 22.1165 193.887 21.8957C194.902 21.672 195.904 21.3975 196.891 21.0733V24.9933C195.945 25.4328 194.889 25.7837 193.723 26.0472C192.578 26.3106 191.072 26.4429 189.201 26.4429C185.086 26.4429 182.017 25.6856 179.993 24.1698C177.991 22.6328 176.989 20.5357 176.989 17.8776ZM198.211 9.77304H217.057V13.9906H211.182V26.0472H203.756V13.9906H198.211V9.77304ZM156.889 9.77304H164.315V17.1522L171.346 9.77304H177.749L171.213 16.5592L179.102 26.0472H170.124L164.315 18.8653V26.0472H156.889V9.77304ZM188.079 13.101C187.066 13.101 186.264 13.3976 185.67 13.9906C185.076 14.5613 184.691 15.2973 184.514 16.1976H191.049C191.028 15.2973 190.785 14.5613 190.324 13.9896C189.861 13.3976 189.113 13.101 188.079 13.101ZM147.88 17.8776C147.88 16.5592 147.516 15.516 146.79 14.748C146.087 13.9576 145.074 13.5618 143.754 13.5618C142.544 13.5618 141.531 13.9352 140.718 14.6818C139.904 15.4072 139.496 16.4717 139.496 17.8776C139.496 19.2834 139.892 20.3704 140.685 21.1394C141.499 21.8861 142.522 22.2594 143.754 22.2594C145.118 22.2594 146.141 21.8637 146.823 21.0733C147.527 20.2829 147.88 19.2173 147.88 17.8776ZM122.499 19.0296H120.816C119.21 19.0296 118.054 19.1629 117.35 19.4264C116.668 19.6898 116.328 20.1944 116.328 20.941C116.328 21.5778 116.548 22.0504 116.987 22.3576C117.45 22.6434 117.999 22.7864 118.638 22.7864C119.606 22.7864 120.398 22.6104 121.013 22.2594C121.651 21.8861 122.147 21.4573 122.499 20.9741V19.0296Z" fill="black"/>
</g>
<defs>
<clipPath id="clip0_13142_3292">
<rect width="218" height="32" fill="white"/>
</clipPath>
</defs>
</svg>
