<svg width="213" height="32" viewBox="0 0 213 32" fill="none" xmlns="http://www.w3.org/2000/svg">
<g clip-path="url(#clip0_13142_3284)">
<path d="M89.8008 9.41678C87.3726 9.41678 85.2 10.1411 83.3682 11.3342V0.213049H78.2136V20.7084C78.2136 26.9294 83.4108 31.9574 89.7582 31.9574C96.1056 31.9574 101.388 26.972 101.388 20.6658C101.388 14.3595 96.276 9.41678 89.8008 9.41678ZM63.1332 9.75766C57.4248 10.3116 52.7388 15.1265 52.7388 20.8788C52.7388 26.9294 58.0638 32.0426 64.2834 32.0426C70.503 32.0426 75.828 26.972 75.828 20.8788C75.828 18.2796 74.8908 15.9361 73.3146 14.0613L61.9404 0.255659H55.2948L63.1332 9.75766ZM23.3874 22.1571L18.6588 10.2264H15.0378L10.3518 22.1571L5.6232 10.2264H0L8.2644 31.2756H11.8854L16.8696 18.7483L21.8538 31.2756H25.4748L33.6966 10.2264H28.116L23.3874 22.1571ZM115.361 9.45939C108.928 9.45939 103.731 14.3169 103.731 20.4953C103.731 26.6312 108.289 32.0426 115.063 32.0426C119.11 32.0426 122.39 30.1252 124.733 26.8868L120.728 23.6911C119.578 25.7364 117.32 26.9294 115.105 26.9294C112.208 26.9294 109.354 24.9268 109.141 21.9867H125.968V20.4527C125.926 13.976 121.538 9.45939 115.361 9.45939ZM180.965 9.45939C174.532 9.45939 169.378 14.3169 169.378 20.751C169.378 26.8016 173.936 32 180.667 32C184.714 32 187.994 30.0826 190.337 26.8442L186.801 23.9041C185.566 25.779 183.308 26.8868 180.581 26.8868C177.898 26.8868 174.958 24.8842 174.745 21.9441H191.487V20.1971C191.487 13.976 187.142 9.45939 180.965 9.45939ZM198.942 16.3622C198.942 15.0413 200.774 14.0186 203.159 14.0186C205.545 14.0186 208.186 15.1691 209.89 17.0439L213 13.3369C210.018 10.7803 207.036 9.45939 203.287 9.45939C198.601 9.45939 193.787 11.5473 193.787 16.3622C193.787 22.285 199.027 22.7111 203.287 23.0519C205.673 23.2224 207.803 23.3928 207.803 24.9268C207.803 26.5886 205.375 27.3555 203.287 27.3555C200.561 27.3555 197.962 26.1198 196.216 24.032L192.893 27.4834C195.534 30.6365 199.368 32 203.117 32C207.803 32 212.957 29.8269 212.957 24.8415C212.957 19.217 207.675 18.6631 203.628 18.2796C201.029 17.9814 198.942 17.7683 198.942 16.3622ZM133.721 14.9987V10.2264H128.567V31.233H133.721V22.3276C134.403 17.3848 138.45 15.3822 143.136 15.3822V10.2264H142.625C138.663 10.2264 135.766 11.6325 133.721 14.9987ZM150.037 14.9987V10.2264H144.883V31.233H150.037V22.3276C150.719 16.7457 155.66 15.3822 159.452 15.3822V10.2264H158.898C154.979 10.2264 152.082 11.5899 150.037 14.9987ZM44.9856 31.233H50.1402V0.255659H44.9856V31.233ZM64.2834 26.972C60.7476 26.972 57.8508 24.2024 57.8508 20.751C57.8508 17.2996 60.705 14.4874 64.2408 14.4874C67.734 14.4874 70.716 17.257 70.716 20.751C70.716 24.245 67.8618 26.972 64.2834 26.972ZM89.8008 26.972C86.3076 26.972 83.3682 24.245 83.3682 20.7084C83.3682 17.1718 86.1372 14.4874 89.8008 14.4874C93.4644 14.4874 96.276 17.257 96.276 20.7084C96.276 24.1598 93.3366 26.972 89.8008 26.972ZM36.0822 31.233H41.2368V10.2264H36.0822V31.233ZM161.624 31.233H166.779V10.2264H161.624V31.233ZM38.5956 0C36.5082 0 34.7616 1.70439 34.7616 3.83489C34.7616 6.00799 36.5934 7.49933 38.5956 7.49933C40.8108 7.49933 42.5148 5.66711 42.5148 3.74967C42.5148 1.78961 40.7256 0 38.5956 0ZM164.18 0C162.093 0 160.304 1.70439 160.304 3.83489C160.304 5.96538 162.008 7.49933 164.266 7.49933C166.523 7.49933 168.057 6.00799 168.057 3.92011C168.057 1.83222 166.31 0 164.18 0ZM175.342 17.7683C176.194 15.6804 178.025 14.4874 180.709 14.4874C183.393 14.4874 185.054 15.7656 185.736 17.7683H175.342ZM109.695 17.7683C110.547 15.6804 112.379 14.4874 115.02 14.4874C117.704 14.4874 119.45 15.7656 120.132 17.7683C120.175 17.7683 109.695 17.7683 109.695 17.7683Z" fill="#E313BF"/>
</g>
<defs>
<clipPath id="clip0_13142_3284">
<rect width="213" height="32" fill="white"/>
</clipPath>
</defs>
</svg>
