<svg width="64" height="64" viewBox="0 0 64 64" fill="none" xmlns="http://www.w3.org/2000/svg">
<rect width="64" height="64" rx="12" fill="white"/>
<path d="M40.5 27.2773L32 31.9996M32 31.9996L23.5 27.2773M32 31.9996L32 41.4996M41 36.0582V27.941C41 27.5984 41 27.4271 40.9495 27.2743C40.9049 27.1391 40.8318 27.015 40.7354 26.9103C40.6263 26.792 40.4766 26.7088 40.177 26.5424L32.777 22.4313C32.4934 22.2737 32.3516 22.1949 32.2015 22.1641C32.0685 22.1367 31.9315 22.1367 31.7986 22.1641C31.6484 22.1949 31.5066 22.2737 31.223 22.4313L23.823 26.5424C23.5234 26.7088 23.3737 26.792 23.2646 26.9103C23.1682 27.015 23.0951 27.1391 23.0505 27.2743C23 27.4271 23 27.5984 23 27.941V36.0582C23 36.4008 23 36.5721 23.0505 36.7249C23.0951 36.8601 23.1682 36.9842 23.2646 37.0889C23.3737 37.2072 23.5234 37.2904 23.823 37.4568L31.223 41.5679C31.5066 41.7255 31.6484 41.8042 31.7986 41.8351C31.9315 41.8625 32.0685 41.8625 32.2015 41.8351C32.3516 41.8042 32.4934 41.7255 32.777 41.5679L40.177 37.4568C40.4766 37.2904 40.6263 37.2072 40.7354 37.0889C40.8318 36.9842 40.9049 36.8601 40.9495 36.7249C41 36.5721 41 36.4008 41 36.0582Z" stroke="#5AB179" stroke-width="2" stroke-linecap="round" stroke-linejoin="round"/>
<path d="M36.5 29.5L27.5 24.5" stroke="#5AB179" stroke-width="2" stroke-linecap="round" stroke-linejoin="round"/>
</svg>
