<svg width="64" height="64" viewBox="0 0 64 64" fill="none" xmlns="http://www.w3.org/2000/svg">
<rect width="64" height="64" rx="12" fill="white"/>
<path d="M42 30H22M31 34H26M22 28.2L22 35.8C22 36.9201 22 37.4802 22.218 37.908C22.4097 38.2843 22.7157 38.5903 23.092 38.782C23.5198 39 24.0799 39 25.2 39L38.8 39C39.9201 39 40.4802 39 40.908 38.782C41.2843 38.5903 41.5903 38.2843 41.782 37.908C42 37.4802 42 36.9201 42 35.8V28.2C42 27.0799 42 26.5198 41.782 26.092C41.5903 25.7157 41.2843 25.4097 40.908 25.218C40.4802 25 39.9201 25 38.8 25L25.2 25C24.0799 25 23.5198 25 23.092 25.218C22.7157 25.4097 22.4097 25.7157 22.218 26.092C22 26.5198 22 27.0799 22 28.2Z" stroke="#5AB179" stroke-width="2" stroke-linecap="round" stroke-linejoin="round"/>
</svg>
