<svg width="64" height="64" viewBox="0 0 64 64" fill="none" xmlns="http://www.w3.org/2000/svg">
<rect width="64" height="64" rx="12" fill="white"/>
<path d="M36.0004 29V26C36.0004 23.7909 34.2095 22 32.0004 22C29.7912 22 28.0004 23.7909 28.0004 26V29M23.5924 30.352L22.9924 36.752C22.8218 38.5717 22.7365 39.4815 23.0384 40.1843C23.3037 40.8016 23.7685 41.3121 24.3584 41.6338C25.0299 42 25.9437 42 27.7714 42H36.2293C38.057 42 38.9708 42 39.6423 41.6338C40.2322 41.3121 40.6971 40.8016 40.9623 40.1843C41.2643 39.4815 41.179 38.5717 41.0084 36.752L40.4084 30.352C40.2643 28.8153 40.1923 28.047 39.8467 27.4662C39.5424 26.9546 39.0927 26.5451 38.555 26.2898C37.9444 26 37.1727 26 35.6293 26L28.3714 26C26.8281 26 26.0564 26 25.4458 26.2898C24.908 26.5451 24.4584 26.9546 24.154 27.4662C23.8085 28.047 23.7364 28.8153 23.5924 30.352Z" stroke="#5AB179" stroke-width="2" stroke-linecap="round" stroke-linejoin="round"/>
</svg>
