<svg width="115" height="28" viewBox="0 0 115 28" fill="none" xmlns="http://www.w3.org/2000/svg">
<path d="M3.90708e-05 20.8877V0.727695H8.14804C8.34404 0.727695 8.58671 0.737028 8.87604 0.755694C9.16537 0.765028 9.44071 0.793028 9.70204 0.839695C10.822 1.01703 11.7554 1.39969 12.502 1.98769C13.258 2.57569 13.8227 3.31769 14.196 4.21369C14.5694 5.10969 14.756 6.09903 14.756 7.18169C14.756 8.27369 14.5694 9.26769 14.196 10.1637C13.8227 11.0597 13.258 11.8017 12.502 12.3897C11.7554 12.9777 10.822 13.3604 9.70204 13.5377C9.44071 13.575 9.16071 13.603 8.86204 13.6217C8.57271 13.6404 8.33471 13.6497 8.14804 13.6497H2.92604V20.8877H3.90708e-05ZM2.92604 10.8777H8.03604C8.22271 10.8777 8.42804 10.8684 8.65204 10.8497C8.88537 10.831 9.10471 10.7984 9.31004 10.7517C9.90737 10.6117 10.388 10.355 10.752 9.98169C11.116 9.59903 11.3774 9.16036 11.536 8.66569C11.6947 8.17103 11.774 7.67636 11.774 7.18169C11.774 6.68703 11.6947 6.19703 11.536 5.71169C11.3774 5.21703 11.116 4.78303 10.752 4.40969C10.388 4.02703 9.90737 3.76569 9.31004 3.62569C9.10471 3.56969 8.88537 3.53236 8.65204 3.51369C8.42804 3.49503 8.22271 3.48569 8.03604 3.48569H2.92604V10.8777ZM24.1207 21.3077C22.6087 21.3077 21.2974 20.967 20.1867 20.2857C19.0761 19.6044 18.2174 18.6664 17.6107 17.4717C17.0134 16.2677 16.7147 14.8817 16.7147 13.3137C16.7147 11.7364 17.0227 10.3504 17.6387 9.15569C18.2547 7.95169 19.1181 7.01836 20.2287 6.35569C21.3394 5.68369 22.6367 5.3477 24.1207 5.3477C25.6327 5.3477 26.9441 5.68836 28.0547 6.36969C29.1654 7.05103 30.0241 7.98903 30.6307 9.18369C31.2374 10.3784 31.5407 11.755 31.5407 13.3137C31.5407 14.891 31.2327 16.2817 30.6167 17.4857C30.0101 18.6804 29.1514 19.6184 28.0407 20.2997C26.9301 20.9717 25.6234 21.3077 24.1207 21.3077ZM24.1207 18.5497C25.5674 18.5497 26.6454 18.0644 27.3547 17.0937C28.0734 16.1137 28.4327 14.8537 28.4327 13.3137C28.4327 11.7364 28.0687 10.4764 27.3407 9.53369C26.6221 8.58169 25.5487 8.10569 24.1207 8.10569C23.1407 8.10569 22.3334 8.32969 21.6987 8.77769C21.0641 9.21636 20.5927 9.8277 20.2847 10.6117C19.9767 11.3864 19.8227 12.287 19.8227 13.3137C19.8227 14.9004 20.1867 16.1697 20.9147 17.1217C21.6427 18.0737 22.7114 18.5497 24.1207 18.5497ZM41.0852 21.3077C39.5359 21.3077 38.2199 20.9624 37.1372 20.2717C36.0546 19.581 35.2239 18.6337 34.6452 17.4297C34.0759 16.2257 33.7866 14.8584 33.7772 13.3277C33.7866 11.769 34.0852 10.3924 34.6732 9.19769C35.2612 7.99369 36.1012 7.05103 37.1932 6.36969C38.2852 5.68836 39.5966 5.3477 41.1272 5.3477C42.7792 5.3477 44.1886 5.75836 45.3552 6.57969C46.5312 7.40103 47.3059 8.5257 47.6792 9.9537L44.7672 10.7937C44.4779 9.94436 44.0019 9.28636 43.3392 8.81969C42.6859 8.34369 41.9346 8.10569 41.0852 8.10569C40.1239 8.10569 39.3352 8.33436 38.7192 8.79169C38.1032 9.23969 37.6459 9.85569 37.3472 10.6397C37.0486 11.4237 36.8946 12.3197 36.8852 13.3277C36.8946 14.8864 37.2492 16.1464 37.9492 17.1077C38.6586 18.069 39.7039 18.5497 41.0852 18.5497C42.0279 18.5497 42.7886 18.335 43.3672 17.9057C43.9552 17.467 44.4032 16.8417 44.7112 16.0297L47.6792 16.7297C47.1846 18.2044 46.3679 19.3384 45.2292 20.1317C44.0906 20.9157 42.7092 21.3077 41.0852 21.3077ZM50.5313 20.8877V0.727695H53.4573V10.1357L61.8993 0.727695H65.5393L56.6213 10.5697L66.1973 20.8877H62.4453L53.4573 11.2557V20.8877H50.5313ZM75.266 21.3077C73.8193 21.3077 72.606 20.9577 71.626 20.2577C70.646 19.5484 69.904 18.5917 69.4 17.3877C68.896 16.1837 68.644 14.8257 68.644 13.3137C68.644 11.8017 68.8913 10.4437 69.386 9.2397C69.89 8.03569 70.6273 7.08836 71.598 6.39769C72.578 5.69769 73.782 5.3477 75.21 5.3477C76.6287 5.3477 77.8513 5.69769 78.878 6.39769C79.914 7.08836 80.712 8.03569 81.272 9.2397C81.832 10.4344 82.112 11.7924 82.112 13.3137C82.112 14.8257 81.832 16.1884 81.272 17.4017C80.7213 18.6057 79.9327 19.5577 78.906 20.2577C77.8887 20.9577 76.6753 21.3077 75.266 21.3077ZM68.154 27.6077V5.76769H70.758V16.6457H71.094V27.6077H68.154ZM74.86 18.6617C75.7933 18.6617 76.5633 18.4237 77.17 17.9477C77.786 17.4717 78.2433 16.8324 78.542 16.0297C78.85 15.2177 79.004 14.3124 79.004 13.3137C79.004 12.3244 78.85 11.4284 78.542 10.6257C78.2433 9.82303 77.7813 9.18369 77.156 8.70769C76.5307 8.23169 75.7327 7.99369 74.762 7.99369C73.8473 7.99369 73.0913 8.21769 72.494 8.66569C71.906 9.11369 71.4673 9.73903 71.178 10.5417C70.898 11.3444 70.758 12.2684 70.758 13.3137C70.758 14.359 70.898 15.283 71.178 16.0857C71.458 16.8884 71.9013 17.5184 72.508 17.9757C73.1147 18.433 73.8987 18.6617 74.86 18.6617ZM91.7692 21.3077C90.2572 21.3077 88.9458 20.967 87.8352 20.2857C86.7245 19.6044 85.8658 18.6664 85.2592 17.4717C84.6618 16.2677 84.3632 14.8817 84.3632 13.3137C84.3632 11.7364 84.6712 10.3504 85.2872 9.15569C85.9032 7.95169 86.7665 7.01836 87.8772 6.35569C88.9878 5.68369 90.2852 5.3477 91.7692 5.3477C93.2812 5.3477 94.5925 5.68836 95.7032 6.36969C96.8138 7.05103 97.6725 7.98903 98.2792 9.18369C98.8858 10.3784 99.1892 11.755 99.1892 13.3137C99.1892 14.891 98.8812 16.2817 98.2652 17.4857C97.6585 18.6804 96.7998 19.6184 95.6892 20.2997C94.5785 20.9717 93.2718 21.3077 91.7692 21.3077ZM91.7692 18.5497C93.2158 18.5497 94.2938 18.0644 95.0032 17.0937C95.7218 16.1137 96.0812 14.8537 96.0812 13.3137C96.0812 11.7364 95.7172 10.4764 94.9892 9.53369C94.2705 8.58169 93.1972 8.10569 91.7692 8.10569C90.7892 8.10569 89.9818 8.32969 89.3472 8.77769C88.7125 9.21636 88.2412 9.8277 87.9332 10.6117C87.6252 11.3864 87.4712 12.287 87.4712 13.3137C87.4712 14.9004 87.8352 16.1697 88.5632 17.1217C89.2912 18.0737 90.3598 18.5497 91.7692 18.5497ZM109.014 4.03169C108.276 4.03169 107.6 3.84969 106.984 3.48569C106.377 3.12169 105.892 2.63636 105.528 2.02969C105.164 1.42303 104.982 0.746361 104.982 -0.000306129H107.306C107.306 0.466361 107.474 0.867695 107.81 1.2037C108.146 1.53969 108.547 1.70769 109.014 1.70769C109.49 1.70769 109.891 1.53969 110.218 1.2037C110.554 0.867695 110.722 0.466361 110.722 -0.000306129H113.046C113.046 0.746361 112.864 1.42303 112.5 2.02969C112.136 2.63636 111.646 3.12169 111.03 3.48569C110.423 3.84969 109.751 4.03169 109.014 4.03169ZM115.006 5.76769V20.8877H112.192V10.3737L104.632 20.8877H102.252V5.76769H105.066V16.0717L112.64 5.76769H115.006Z" fill="#2C332F"/>
</svg>
