<svg width="44" height="44" viewBox="0 0 44 44" fill="none" xmlns="http://www.w3.org/2000/svg">
<mask id="mask0_7147_3" style="mask-type:luminance" maskUnits="userSpaceOnUse" x="0" y="0" width="44" height="44">
<path d="M22 44C9.84987 44 0 34.1494 0 22.0016C0 9.85367 9.84987 0 22 0C34.1501 0 44 9.85056 44 22.0016C43.9969 34.1494 34.147 44 22 44Z" fill="white"/>
</mask>
<g mask="url(#mask0_7147_3)">
<path d="M43.9969 0H0V44H43.9969V0Z" fill="#005BFF"/>
</g>
<mask id="mask1_7147_3" style="mask-type:luminance" maskUnits="userSpaceOnUse" x="0" y="0" width="44" height="44">
<path d="M22 44C9.84987 44 0 34.1494 0 22.0016C0 9.85367 9.84987 0 22 0C34.1501 0 44 9.85056 44 22.0016C43.9969 34.1494 34.147 44 22 44Z" fill="white"/>
</mask>
<g mask="url(#mask1_7147_3)">
<path d="M48.8642 37.6976C45.5212 40.705 41.6672 45.1435 36.8261 44.9687C35.523 44.0904 37.5839 42.3783 38.2445 41.6372C40.3544 39.2701 42.4365 36.7433 44.4875 34.1678C51.866 24.9031 49.4506 30.0674 48.8645 37.6976H48.8642Z" fill="#F1117E"/>
<path d="M8.04959 2.32837C6.08458 4.40838 4.16614 6.4915 2.24459 8.61497C1.19845 9.77605 0.254753 11.0272 -0.778971 12.2069C-2.62601 14.3148 -4.53825 16.3979 -6.72055 18.1209C-8.9339 19.8657 -11.3149 21.629 -13.5717 23.3179C-13.5779 23.1906 -13.8449 17.2734 -13.8511 17.1399C-12.895 15.5194 -11.9326 13.6846 -11.2218 11.9244C-10.8027 10.8844 -10.4333 9.79157 -10.0111 8.75157C-9.20397 6.74917 -8.14542 4.91752 -6.58707 3.45841C-5.71787 2.64192 -4.7183 2.06449 -3.69078 1.51499C-0.608235 -0.136599 2.47121 -1.81613 5.55996 -3.4522C7.40079 -4.43011 8.79461 -6.13448 10.4368 -7.42285L16.9526 -7.71777C13.9943 -4.3494 11.1321 -0.934453 8.04959 2.32837Z" fill="#F1117E"/>
<path d="M18.5023 25.2785L14.6902 26.2998L17.8314 18.5513C17.9003 18.3784 17.8162 18.1825 17.6433 18.1133C17.5766 18.0866 17.503 18.0822 17.4335 18.1002L10.3905 19.9875C9.76869 20.1542 9.3999 20.7931 9.56629 21.4149C9.73299 22.0367 10.3718 22.4056 10.9936 22.2392L14.1606 21.3904L11.002 29.1467C10.9306 29.3165 11.0104 29.5124 11.1802 29.5838C11.2497 29.6129 11.3273 29.6179 11.4 29.5974L19.106 27.5323C19.7182 27.3336 20.0535 26.6764 19.8548 26.0642C19.6707 25.4964 19.0874 25.1599 18.5038 25.284L18.5023 25.2778V25.2785ZM41.2485 11.719C40.6267 11.8857 40.2579 12.5246 40.4243 13.1464L41.436 16.9221L34.0578 13.7241C33.8895 13.6484 33.6921 13.7235 33.6164 13.8918C33.5844 13.9629 33.5785 14.0427 33.5993 14.1178L35.6788 21.8793C35.8455 22.5012 36.4844 22.87 37.1062 22.7033C37.728 22.5366 38.0968 21.8977 37.9304 21.2758L36.9187 17.5001L44.2979 20.7012C44.4692 20.7741 44.667 20.6947 44.7399 20.5233C44.7694 20.4541 44.775 20.3771 44.7557 20.3044L42.6762 12.5429C42.5095 11.9211 41.8706 11.5522 41.2488 11.7186M27.0747 23.2096C24.501 23.8994 22.2116 23.0584 21.8862 21.8446C21.5609 20.6307 23.1233 18.7578 25.697 18.068C28.2708 17.3781 30.5602 18.2191 30.8855 19.433C31.2108 20.6469 29.6547 22.5182 27.0747 23.2096ZM25.0945 15.8194C21.3678 16.8181 18.9244 19.7847 19.6378 22.4468C20.3512 25.1089 23.9503 26.4566 27.6769 25.4579C31.4036 24.4592 33.8467 21.4925 33.1333 18.8304C32.42 16.1683 28.8212 14.8207 25.0942 15.8194M4.91826 29.1501C3.49743 29.5325 2.03532 28.6909 1.65256 27.2697C1.27011 25.8484 2.11199 24.3865 3.53282 24.0037C4.95365 23.6213 6.41576 24.4629 6.79852 25.8841L6.79945 25.8872C7.18003 27.3076 6.33815 28.7679 4.91826 29.1501ZM2.93742 21.7567C0.273951 22.4686 -1.3083 25.2052 -0.596487 27.8688C0.115323 30.5328 2.85174 32.1149 5.51552 31.403C8.17899 30.6911 9.76124 27.9545 9.04943 25.2906L9.04787 25.2844C8.33482 22.6229 5.59903 21.0433 2.93773 21.7564" fill="white"/>
</g>
</svg>
