<svg width="48" height="48" viewBox="0 0 48 48" fill="none" xmlns="http://www.w3.org/2000/svg">
<rect width="48" height="48" rx="24" fill="url(#paint0_linear_7120_997)"/>
<path d="M15.8812 30.4001H13.357L9.59998 17.6029H11.8958L14.6835 27.6036L17.6997 17.6029H19.7115L22.7071 27.6036L25.4949 17.6029H27.7907L24.0337 30.4001H21.5094L18.7012 21.0597L15.8754 30.4001H15.8812ZM36.5405 23.7631C37.6972 24.3472 38.4 25.4082 38.4 26.743C38.4 27.7842 38.0193 28.6618 37.2433 29.356C36.4644 30.0502 35.5361 30.3973 34.4175 30.3973H28.7277V17.6001H34.0016C35.0822 17.6001 36.0134 17.9472 36.7513 18.6244C37.5098 19.3017 37.8905 20.1426 37.8905 21.1472C37.8905 22.2618 37.4366 23.1225 36.5434 23.7602L36.5405 23.7631ZM33.9987 19.5782H30.9064V22.9419H33.9987C34.9651 22.9419 35.7059 22.211 35.7059 21.2601C35.7059 20.3091 34.9651 19.5782 33.9987 19.5782ZM30.9064 28.4248H34.4145C35.419 28.4248 36.2155 27.6375 36.2155 26.6329C36.2155 25.6283 35.419 24.841 34.4145 24.841H30.9064V28.4248Z" fill="white"/>
<defs>
<linearGradient id="paint0_linear_7120_997" x1="48" y1="0" x2="0" y2="48" gradientUnits="userSpaceOnUse">
<stop stop-color="#491174"/>
<stop offset="1" stop-color="#CC11AC"/>
</linearGradient>
</defs>
</svg>
