<svg width="36" height="36" viewBox="0 0 36 36" fill="none" xmlns="http://www.w3.org/2000/svg">
<rect width="36" height="36" rx="18" fill="#25D366"/>
<path d="M21.6782 18.9206C21.65 18.9059 20.595 18.3425 20.4075 18.2694C20.331 18.2395 20.249 18.2104 20.1618 18.2104C20.0193 18.2104 19.8997 18.2874 19.8065 18.4387C19.7011 18.6086 19.382 19.013 19.2835 19.1338C19.2706 19.1498 19.253 19.1688 19.2425 19.1688C19.233 19.1688 19.0698 19.0959 19.0203 19.0726C17.8886 18.5395 17.0295 17.2574 16.9117 17.0412C16.8949 17.0101 16.8942 16.996 16.8941 16.996C16.8982 16.9795 16.9363 16.9381 16.9559 16.9168C17.0134 16.8551 17.0756 16.7738 17.1359 16.6952C17.1644 16.658 17.1929 16.6207 17.221 16.5855C17.3084 16.4752 17.3473 16.3896 17.3924 16.2905L17.416 16.239C17.5262 16.0017 17.4321 15.8014 17.4017 15.7367C17.3768 15.6826 16.9313 14.5167 16.8839 14.3942C16.77 14.0986 16.6195 13.9609 16.4104 13.9609C16.391 13.9609 16.4104 13.9609 16.329 13.9647C16.2299 13.9692 15.6903 14.0462 15.4517 14.2093C15.1987 14.3823 14.7706 14.9338 14.7706 15.9036C14.7706 16.7764 15.2814 17.6005 15.5007 17.9139C15.5061 17.9218 15.5161 17.9379 15.5306 17.9609C16.3704 19.291 17.4173 20.2767 18.4786 20.7364C19.5003 21.179 19.9841 21.2302 20.2592 21.2302H20.2592C20.3748 21.2302 20.4673 21.2204 20.5489 21.2116L20.6007 21.2063C20.9537 21.1724 21.7293 20.7365 21.9057 20.2048C22.0447 19.7859 22.0814 19.3284 21.9889 19.1623C21.9256 19.0494 21.8164 18.9926 21.6782 18.9206Z" fill="white"/>
<path d="M18.129 10.7305C14.1915 10.7305 10.9881 13.9098 10.9881 17.8177C10.9881 19.0816 11.3264 20.3188 11.9672 21.4017L10.7407 25.0196C10.7179 25.087 10.7349 25.1616 10.7847 25.2124C10.8208 25.2491 10.8696 25.269 10.9195 25.269C10.9386 25.269 10.9579 25.2661 10.9767 25.2601L14.7491 24.0613C15.7815 24.6129 16.9482 24.904 18.1291 24.904C22.0662 24.9041 25.2692 21.7251 25.2692 17.8177C25.2692 13.9098 22.0662 10.7305 18.129 10.7305ZM18.129 23.4278C17.0179 23.4278 15.9417 23.1069 15.0166 22.4999C14.9855 22.4795 14.9494 22.469 14.9131 22.469C14.8939 22.469 14.8746 22.4719 14.8559 22.4779L12.9661 23.0786L13.5761 21.2788C13.5959 21.2205 13.586 21.1563 13.5497 21.1066C12.8452 20.1441 12.4728 19.0068 12.4728 17.8177C12.4728 14.7238 15.0102 12.2068 18.129 12.2068C21.2474 12.2068 23.7844 14.7238 23.7844 17.8177C23.7845 20.9111 21.2475 23.4278 18.129 23.4278Z" fill="white"/>
</svg>
